<svg width="2000" height="881" viewBox="0 0 2000 881" fill="none" xmlns="http://www.w3.org/2000/svg">
<rect width="2000" height="881" fill="#C5E8F3"/>
<path d="M204.474 822.724L156.573 799.527L145.668 799.886L152.344 808.514L199.697 832.396C202.454 833.783 205.792 832.585 207.042 829.777C208.223 827.106 207.076 823.991 204.474 822.724Z" fill="#D1DEE5"/>
<path d="M207.504 827.569C207.504 828.305 207.35 829.041 207.042 829.76C205.792 832.568 202.437 833.766 199.697 832.379L152.344 808.497L145.668 799.869L150.718 799.715L153.902 803.841L201.255 827.723C203.378 828.784 205.843 828.322 207.453 826.764C207.487 827.021 207.504 827.295 207.504 827.569Z" fill="#D1DEE5"/>
<path d="M150.307 799.715C150.307 799.715 151.095 802.557 148.458 803.498L145.462 800.451C144.983 799.955 145.377 799.133 146.079 799.201L150.307 799.715Z" fill="#D1DEE5"/>
<path d="M140.45 780.799C142.609 774.094 134.531 765.494 122.408 761.591C110.285 757.687 98.7065 759.958 96.5476 766.664C94.3886 773.369 102.466 781.969 114.589 785.872C126.713 789.776 138.291 787.505 140.45 780.799Z" fill="#D1DEE5"/>
<path d="M268.108 744.675L143.904 775.422C141.525 776.004 139.025 775.285 137.33 773.522L131.321 767.239C127.692 763.456 129.524 757.173 134.608 755.906L258.812 725.159C261.191 724.577 263.691 725.296 265.386 727.059L271.395 733.342C275.007 737.143 273.192 743.426 268.108 744.675Z" fill="#D1DEE5"/>
<path d="M169.943 750.291L237.018 733.89L221.302 727.23L153.954 743.631L169.943 750.291Z" fill="#E1E1E0"/>
<path d="M182.612 744.093L177.408 740.327L177.682 724.97L182.612 723.823V744.093Z" fill="#9A9A99"/>
<path d="M338.007 601.486V628.518C338.007 629.511 337.716 630.436 337.202 631.223L302.843 605.732C303.494 604.653 304.538 603.849 305.822 603.506L331.793 596.693C334.943 595.871 338.007 598.233 338.007 601.486Z" fill="#DD9F41"/>
<path d="M337.203 631.223C336.552 632.233 335.525 633.004 334.31 633.312L308.339 640.142C305.206 640.964 302.125 638.602 302.125 635.349V608.3C302.125 607.375 302.381 606.485 302.844 605.732L337.203 631.223Z" fill="#BC8836"/>
<path d="M266.84 616.808L128.325 643.344C127.384 643.566 126.562 644.012 125.877 644.628L116.752 639.441C117.933 638.003 119.56 636.941 121.477 636.496L251.672 606.057C252.819 605.783 254.206 605.783 255.661 606.04C259.308 606.708 262.441 609.053 264.255 612.289L266.84 616.808Z" fill="#BBB9B8"/>
<path d="M127.349 736.304L120.964 735.123C116.444 733.257 114.595 728.172 114.612 724.354L114.835 644.868C114.835 642.83 115.554 640.93 116.787 639.424L125.911 644.611C124.833 645.604 124.165 647.042 124.165 648.6L127.349 736.304Z" fill="#9A9A99"/>
<path d="M217.074 715.777L216.714 726.152L216.68 727.282L216.389 736.304L182.612 744.093V723.635L217.074 715.777Z" fill="#BBB9B8"/>
<path d="M237.018 733.89V740.224L169.892 756.847L169.943 750.291L237.018 733.89Z" fill="#BBB9B8"/>
<path d="M153.954 743.631V749.161L169.892 756.847L169.943 750.29L153.954 743.631Z" fill="#9A9A99"/>
<path d="M272.661 692.785L317.309 682.514C320.305 681.829 322.428 679.158 322.428 676.094V645.809" stroke="#A5A2A0" stroke-width="12.7425" stroke-miterlimit="10" stroke-linecap="round" stroke-linejoin="round" stroke-dasharray="38.05 38.05"/>
<path d="M106.429 732.948L57.1077 744.299L57.3131 709.957" stroke="#A5A2A0" stroke-width="12.7425" stroke-miterlimit="10" stroke-linecap="round" stroke-linejoin="round" stroke-dasharray="38.05 38.05"/>
<path d="M305.103 610.44V636.547C305.103 639.68 308.065 641.974 311.095 641.17L336.158 634.579C338.264 634.031 339.719 632.13 339.719 629.956V603.866C339.719 600.733 336.757 598.439 333.727 599.244L308.664 605.818C306.575 606.365 305.103 608.266 305.103 610.44Z" fill="#FEC64A"/>
<path d="M71.2312 657.673V684.705C71.2312 685.698 70.9402 686.622 70.4266 687.41L36.0674 661.919C36.7179 660.84 37.7622 660.035 39.0462 659.693L65.0168 652.879C68.1497 652.058 71.2312 654.42 71.2312 657.673Z" fill="#1A649B"/>
<path d="M70.4266 687.41C69.7761 688.42 68.7489 689.19 67.5334 689.499L41.5628 696.329C38.4299 697.151 35.3484 694.788 35.3484 691.536V664.487C35.3484 663.562 35.6052 662.672 36.0674 661.919L70.4266 687.41Z" fill="#0B4B77"/>
<path d="M38.3271 666.627V692.734C38.3271 695.867 41.2889 698.161 44.319 697.356L69.3822 690.765C71.488 690.218 72.9431 688.317 72.9431 686.143V660.053C72.9431 656.92 69.9814 654.626 66.9513 655.43L41.888 662.004C39.7994 662.552 38.3271 664.452 38.3271 666.627Z" fill="#207FC3"/>
<path d="M130.466 575.464V602.496C130.466 603.489 130.175 604.414 129.661 605.201L95.3018 579.693C95.9523 578.614 96.9966 577.81 98.2806 577.467L124.251 570.654C127.401 569.832 130.466 572.212 130.466 575.464Z" fill="#8FB133"/>
<path d="M129.661 605.201C129.01 606.211 127.983 606.982 126.768 607.29L100.797 614.121C97.6641 614.942 94.5825 612.58 94.5825 609.327V582.278C94.5825 581.353 94.8393 580.463 95.3015 579.71L129.661 605.201Z" fill="#779633"/>
<path d="M97.5615 584.401V610.508C97.5615 613.641 100.523 615.935 103.553 615.131L128.634 608.54C130.739 607.992 132.195 606.091 132.195 603.917V577.827C132.195 574.694 129.233 572.4 126.203 573.205L101.14 579.778C99.0338 580.326 97.5615 582.227 97.5615 584.401Z" fill="#A1C635"/>
<path d="M115.691 604.106C114.031 603.832 112.421 603.13 111.035 601.983L105.265 597.172C103.245 595.494 102.013 593.149 101.79 590.53C101.567 587.927 102.372 585.394 104.05 583.391C105.026 582.244 106.755 582.09 107.902 583.065C109.049 584.041 109.203 585.77 108.227 586.917C107.491 587.79 107.131 588.903 107.234 590.033C107.337 591.18 107.868 592.207 108.758 592.926L114.544 597.737C116.273 599.175 118.841 599.021 120.365 597.377L120.759 596.967C121.786 595.871 123.532 595.802 124.628 596.847C125.723 597.874 125.792 599.62 124.748 600.716L124.354 601.127C122.077 603.592 118.807 604.602 115.691 604.106Z" fill="#779633"/>
<path d="M118.225 604.106C116.564 603.832 114.955 603.13 113.568 601.983L107.782 597.172C105.762 595.494 104.529 593.149 104.307 590.53C104.084 587.927 104.889 585.394 106.566 583.391C107.542 582.244 109.271 582.09 110.418 583.065C111.565 584.041 111.719 585.77 110.744 586.917C110.007 587.79 109.648 588.903 109.751 590.033C109.853 591.18 110.384 592.207 111.274 592.926L117.061 597.737C118.79 599.175 121.358 599.021 122.881 597.377L123.275 596.967C124.302 595.871 126.049 595.802 127.144 596.847C128.24 597.874 128.308 599.62 127.264 600.716L126.87 601.127C124.611 603.592 121.324 604.602 118.225 604.106Z" fill="white"/>
<path d="M262.081 548.963V575.995C262.081 576.988 261.79 577.912 261.277 578.7L226.917 553.209C227.568 552.13 228.612 551.326 229.896 550.983L255.867 544.17C259.017 543.331 262.081 545.71 262.081 548.963Z" fill="#C83D20"/>
<path d="M261.277 578.7C260.626 579.71 259.599 580.48 258.383 580.789L232.413 587.619C229.28 588.441 226.198 586.079 226.198 582.826V555.777C226.198 554.852 226.455 553.962 226.918 553.209L261.277 578.7Z" fill="#A5331D"/>
<path d="M229.177 557.9V584.007C229.177 587.14 232.139 589.434 235.169 588.629L260.232 582.038C262.338 581.49 263.793 579.59 263.793 577.416V551.326C263.793 548.193 260.832 545.899 257.801 546.703L232.738 553.277C230.65 553.825 229.177 555.725 229.177 557.9Z" fill="#F0492A"/>
<path d="M52.1428 652.708V607.016L89.0357 598.559" stroke="#A5A2A0" stroke-width="12.7425" stroke-miterlimit="10" stroke-linecap="round" stroke-linejoin="round" stroke-dasharray="38.05 38.05"/>
<path d="M270.127 562.813L321.024 551.154V594.929" stroke="#A5A2A0" stroke-width="12.7425" stroke-miterlimit="10" stroke-linecap="round" stroke-linejoin="round" stroke-dasharray="38.05 38.05"/>
<path d="M139.71 590.136L218.597 571.698" stroke="#A5A2A0" stroke-width="12.7425" stroke-miterlimit="10" stroke-linecap="round" stroke-linejoin="round" stroke-dasharray="38.05 38.05"/>
<path d="M171.638 778.76C171.296 778.76 170.953 778.658 170.645 778.452C168.317 776.809 166.554 776.312 166.536 776.312C165.629 776.056 165.081 775.114 165.338 774.207C165.578 773.299 166.519 772.751 167.427 772.991C167.512 773.008 169.755 773.625 172.614 775.645C173.384 776.193 173.573 777.254 173.025 778.041C172.7 778.504 172.169 778.76 171.638 778.76Z" fill="white"/>
<path d="M140.497 774.463C140.497 775.987 139.556 777.34 138.135 777.887L129.798 781.055C124.473 783.075 118.516 782.578 113.602 779.702L93.9833 768.215C93.1444 767.718 92.6479 766.828 92.6479 765.869C92.6479 765.681 92.6651 765.476 92.7164 765.287C93.367 762.326 95.4385 759.895 98.2632 758.782L99.4958 758.285L100.746 757.789L101.516 757.481C101.567 757.464 101.636 757.429 101.687 757.412C102.098 757.258 102.509 757.104 102.92 756.984C107.936 755.409 113.397 755.82 118.139 758.166L135.772 766.862C137.21 767.581 138.392 768.677 139.213 769.995C140.035 771.313 140.497 772.854 140.497 774.463Z" fill="#BBB9B8"/>
<path d="M140.497 774.464C140.497 775.987 139.556 777.34 138.135 777.887L129.798 781.055C124.473 783.075 118.516 782.578 113.602 779.702L93.9833 768.215C93.1444 767.718 92.6479 766.828 92.6479 765.869C92.6479 765.681 92.6651 765.476 92.7164 765.287C93.0759 763.678 93.8463 762.223 94.942 761.042C95.0105 761.093 95.0789 761.144 95.1645 761.196L114.784 772.683C119.697 775.559 125.655 776.056 130.979 774.036L139.316 770.868C139.436 770.817 139.539 770.783 139.641 770.731C140.189 771.861 140.497 773.145 140.497 774.464Z" fill="#9A9A99"/>
<path d="M120.502 768.266C120.433 768.335 120.348 768.369 120.279 768.369C120.211 768.369 120.125 768.352 120.074 768.283C111.274 760.254 101.002 757.875 100.9 757.857C100.848 757.84 100.814 757.823 100.78 757.806L101.55 757.498C101.602 757.481 101.67 757.447 101.721 757.429C104.204 758.114 112.901 760.888 120.502 767.838C120.604 767.941 120.604 768.129 120.502 768.266Z" fill="#002B42"/>
<path d="M112.849 762.651C112.524 763.13 111.993 763.37 111.445 763.37C111.103 763.37 110.76 763.267 110.452 763.062C108.124 761.418 106.36 760.922 106.343 760.922C105.436 760.665 104.888 759.723 105.145 758.816C105.196 758.593 105.299 758.405 105.436 758.234C105.607 758.765 106.035 759.193 106.617 759.364C106.634 759.364 108.398 759.877 110.726 761.504C111.017 761.709 111.377 761.812 111.719 761.812C112.233 761.812 112.746 761.572 113.088 761.127C113.243 761.624 113.174 762.189 112.849 762.651Z" fill="#C0CACE"/>
<path d="M113.071 761.144C112.746 761.589 112.215 761.829 111.702 761.829C111.359 761.829 111.017 761.726 110.709 761.521C108.381 759.878 106.617 759.381 106.6 759.381C106.018 759.227 105.59 758.782 105.419 758.251C105.83 757.72 106.532 757.447 107.217 757.635C107.319 757.652 109.545 758.268 112.404 760.288C112.746 760.494 112.969 760.802 113.071 761.144Z" fill="#E1E1E0"/>
<path d="M326.418 778.641C340.988 778.641 352.799 772.662 352.799 765.287C352.799 757.913 340.988 751.934 326.418 751.934C311.848 751.934 300.036 757.913 300.036 765.287C300.036 772.662 311.848 778.641 326.418 778.641Z" fill="#D1DEE5"/>
<path d="M322.891 769.978H308.082C301.337 769.978 295.876 764.517 295.876 757.772V721.358H335.097V757.772C335.097 764.517 329.619 769.978 322.891 769.978Z" fill="#EE433C"/>
<path d="M321.607 769.978H308.082C301.337 769.978 295.876 764.517 295.876 757.772V721.358H309.4V757.772C309.4 764.517 314.861 769.978 321.607 769.978Z" fill="#DA3D36"/>
<path d="M335.097 721.358C335.097 722.266 334.6 723.139 333.71 723.926C330.834 726.494 323.747 728.309 315.478 728.309C307.209 728.309 300.121 726.494 297.245 723.926C296.355 723.122 295.859 722.266 295.859 721.358C295.859 717.523 304.641 714.408 315.478 714.408C326.315 714.408 335.097 717.523 335.097 721.358Z" fill="#CB3832"/>
<path d="M333.71 723.926C330.834 726.494 323.747 728.309 315.478 728.309C307.209 728.309 300.121 726.494 297.245 723.926C300.121 721.358 307.209 719.543 315.478 719.543C323.747 719.543 330.834 721.358 333.71 723.926Z" fill="#4A311A"/>
<path d="M343.982 733.513V749.88C343.982 754.776 339.993 758.765 335.097 758.765V753.783C337.237 753.783 339 752.037 339 749.88V733.513C339 731.373 337.254 729.61 335.097 729.61V724.628C339.993 724.628 343.982 728.617 343.982 733.513Z" fill="#EE433C"/>
<path d="M341.448 733.513V749.88C341.448 753.903 338.761 757.31 335.08 758.405V753.783C337.22 753.783 338.983 752.037 338.983 749.88V733.513C338.983 731.373 337.237 729.61 335.08 729.61V724.988C338.761 726.083 341.448 729.49 341.448 733.513Z" fill="#DA3D36"/>
<path d="M320.836 767.307H323.421C328.146 767.307 331.964 763.473 331.964 758.765V734.575C331.964 733.856 331.382 733.273 330.663 733.273C329.944 733.273 329.362 733.856 329.362 734.575V758.765C329.396 763.473 325.561 767.307 320.836 767.307Z" fill="#F94E4E"/>
<path d="M330.235 731.801C331.199 731.801 331.981 731.019 331.981 730.055C331.981 729.091 331.199 728.309 330.235 728.309C329.271 728.309 328.489 729.091 328.489 730.055C328.489 731.019 329.271 731.801 330.235 731.801Z" fill="#F94E4E"/>
<path d="M314.365 791.121C314.725 790.094 314.382 788.861 313.235 788.262L265.882 763.832C263.52 762.617 260.798 762.309 258.23 762.976L174.566 784.633C173.419 784.924 172.82 785.917 172.82 786.927V786.978C172.82 786.978 172.82 786.978 172.82 786.995V790.898C172.82 793.073 174.035 795.041 175.952 796.034L219.385 818.821C222.261 820.327 225.582 820.738 228.732 819.985L310.821 800.177C312.961 799.664 314.485 797.763 314.485 795.555V791.087L314.365 791.121Z" fill="#D1DEE5"/>
<path d="M220.686 806.905V806.957L171.142 781.808V785.66C171.142 787.766 172.323 789.683 174.189 790.659L216.372 812.794C219.163 814.25 222.381 814.661 225.445 813.924L305.155 794.699C307.243 794.203 308.698 792.354 308.698 790.214V785.882L220.686 806.905Z" fill="#002237"/>
<path d="M306.97 787.337L224.555 807.812C222.09 808.429 219.488 808.121 217.228 806.956L172.375 783.811C170.526 782.852 170.834 780.13 172.854 779.599L254.07 758.559C256.569 757.909 259.206 758.217 261.5 759.398L307.466 783.126C309.315 784.085 309.007 786.841 306.97 787.337Z" fill="#002B42"/>
<path d="M185.608 784.598L218.871 801.496C221.713 802.934 224.966 803.327 228.065 802.574L295.242 786.464C297.005 786.036 297.279 783.657 295.67 782.835L262.595 766.195C259.787 764.774 256.569 764.397 253.504 765.116L186.036 780.969C184.29 781.38 183.998 783.777 185.608 784.598Z" fill="#FEFEFE"/>
<path d="M260.465 784.522C260.677 781.381 251.979 778.235 241.036 777.496C230.094 776.757 221.051 778.704 220.839 781.845C220.627 784.987 229.325 788.132 240.268 788.872C251.21 789.611 260.253 787.664 260.465 784.522Z" stroke="#002B42" stroke-width="7.3979" stroke-miterlimit="10" stroke-linecap="round" stroke-linejoin="round" stroke-dasharray="22.09 22.09"/>
<path d="M244.402 787.493C252.663 780.278 257.681 772.507 255.609 770.136C253.538 767.764 245.163 771.691 236.902 778.905C228.641 786.12 223.623 793.891 225.694 796.262C227.765 798.634 236.141 794.707 244.402 787.493Z" stroke="#002B42" stroke-width="7.3979" stroke-miterlimit="10" stroke-linecap="round" stroke-linejoin="round" stroke-dasharray="22.09 22.09"/>
<path d="M198.311 816.081L150.41 792.867L139.505 793.227L146.181 801.855L193.534 825.737C196.291 827.124 199.629 825.925 200.879 823.118C202.077 820.464 200.93 817.348 198.311 816.081Z" fill="#002B42"/>
<path d="M201.358 820.926C201.358 821.662 201.204 822.399 200.896 823.118C199.646 825.925 196.29 827.124 193.551 825.737L146.198 801.855L139.521 793.227L144.572 793.073L147.756 797.198L195.109 821.08C197.232 822.142 199.697 821.679 201.306 820.122C201.341 820.378 201.358 820.652 201.358 820.926Z" fill="#002237"/>
<path d="M144.161 793.073C144.161 793.073 144.949 795.914 142.312 796.856L139.316 793.809C138.837 793.312 139.231 792.49 139.933 792.559L144.161 793.073Z" fill="#10405B"/>
<path d="M124.131 648.565V732.589C124.131 734.986 126.357 736.749 128.685 736.218L263.314 705.129C265.368 704.649 266.841 702.818 266.841 700.712V618.144C266.841 614.703 263.639 612.152 260.284 612.922L128.291 643.361C125.86 643.909 124.131 646.083 124.131 648.565Z" fill="#002B42"/>
<path d="M133.102 649.849V717.318L257.853 688.694V621.277L133.102 649.849Z" fill="#FEFEFE"/>
<path d="M266.841 694.309V701.174C266.841 703.023 265.574 704.615 263.776 705.026L128.719 736.201C126.374 736.749 124.131 734.951 124.131 732.554V727.127L266.841 694.309Z" fill="#E1E1E0"/>
<path d="M233.339 675.681C234.448 670.378 220.355 662.946 201.863 659.081C183.37 655.215 167.481 656.381 166.372 661.685C165.264 666.988 179.356 674.421 197.849 678.286C216.341 682.151 232.231 680.985 233.339 675.681Z" stroke="#002B42" stroke-width="12.7425" stroke-miterlimit="10" stroke-linecap="round" stroke-linejoin="round" stroke-dasharray="38.05 38.05"/>
<path d="M205.206 676.896C221.014 666.553 231.424 654.493 228.458 649.96C225.492 645.426 210.272 650.136 194.464 660.479C178.656 670.821 168.246 682.881 171.212 687.414C174.178 691.948 189.398 687.239 205.206 676.896Z" stroke="#002B42" stroke-width="12.7425" stroke-miterlimit="10" stroke-linecap="round" stroke-linejoin="round" stroke-dasharray="38.05 38.05"/>
<path d="M199.749 717.797C201.517 717.797 202.95 716.364 202.95 714.596C202.95 712.828 201.517 711.395 199.749 711.395C197.981 711.395 196.547 712.828 196.547 714.596C196.547 716.364 197.981 717.797 199.749 717.797Z" fill="#9A9A99"/>
<path d="M206.22 714.579C207.099 714.579 207.812 713.866 207.812 712.987C207.812 712.107 207.099 711.395 206.22 711.395C205.34 711.395 204.628 712.107 204.628 712.987C204.628 713.866 205.34 714.579 206.22 714.579Z" fill="#BBB9B8"/>
<path d="M193.346 717.78C194.225 717.78 194.938 717.067 194.938 716.188C194.938 715.309 194.225 714.596 193.346 714.596C192.466 714.596 191.754 715.309 191.754 716.188C191.754 717.067 192.466 717.78 193.346 717.78Z" fill="#BBB9B8"/>
<path d="M31 788.228V795.966C31 799.03 32.4723 801.889 34.9546 803.687L87.5805 841.47C89.8232 843.079 92.648 843.627 95.3186 842.994L143.031 831.592C146.387 830.787 148.749 827.757 148.681 824.299L148.561 817.4L92.3569 831.095L31 788.228Z" fill="#779633"/>
<path d="M147.397 813.805C149.588 815.106 149.092 818.41 146.609 819.009L133.752 822.108L97.2533 830.907C93.932 831.712 90.4225 831.061 87.6149 829.11L83.7801 826.456L76.1105 821.132L74.0219 819.677L70.9403 817.537L33.4482 791.515L32.9175 791.138L32.2327 790.659C30.2126 789.255 30.7947 786.139 33.1914 785.557L75.8194 775.268C78.8496 774.532 82.051 775.011 84.7388 776.604L86.6391 777.733L87.5806 778.281L93.3671 781.722L99.2734 785.232L129.9 803.396L133.41 805.484L135.088 806.477L144.195 811.87L147.397 813.805Z" fill="#A1C635"/>
<path d="M148.646 821.799L94.0004 834.348C92.9732 834.588 92.2371 835.495 92.2371 836.556C92.2371 838.012 93.5895 839.09 95.0276 838.765L147.448 826.627C148.15 826.456 148.646 825.84 148.646 825.103V821.799Z" fill="white"/>
<path d="M102.475 787.098L45.4661 799.869V811.22L54.4539 817.674L54.7963 806.529L113.157 793.501L102.475 787.098Z" fill="#FEC64A"/>
<path d="M45.4661 799.869L54.7963 806.529L54.4539 817.674L45.4661 811.219V799.869Z" fill="#BC8836"/>
<path d="M181.14 840.203C181.14 842.018 179.89 843.593 178.126 844.004L159.483 848.352C159.158 848.421 158.816 848.455 158.49 848.455V840.374L181.14 835.136V840.203Z" fill="#14598B"/>
<path d="M158.49 840.374V848.455C157.874 848.438 157.275 848.283 156.727 847.975L148.663 843.576C147.414 842.891 146.626 841.573 146.626 840.152V835.649L157.874 840.494L158.49 840.374Z" fill="#1B68A1"/>
<path d="M179.958 836.42L159.466 840.922C158.045 841.23 156.556 841.076 155.22 840.477L147.499 836.985C146.198 836.403 146.37 834.502 147.756 834.16L167.084 829.384C168.522 829.024 170.046 829.161 171.416 829.743L173.299 830.565V831.25L177.442 833.116L178.572 832.842L180.232 833.561C181.585 834.16 181.396 836.112 179.958 836.42Z" fill="#207FC3"/>
<path d="M177.493 833.15L163.883 836.471L159.723 834.365L158.97 833.989L172.306 830.804L173.316 831.25L177.459 833.133L177.493 833.15Z" fill="#D1DEE5"/>
<path d="M173.316 830.565V831.267L159.723 834.365L158.97 833.989L172.306 830.804L173.316 830.565Z" fill="#14598B"/>
<path d="M164.568 835.385C164.828 835.165 164.836 834.747 164.586 834.451C164.335 834.155 163.922 834.093 163.662 834.313C163.402 834.533 163.394 834.951 163.644 835.247C163.895 835.543 164.308 835.604 164.568 835.385Z" fill="#869096"/>
<path d="M175.302 832.157C175.268 832.242 175.199 832.294 175.114 832.328L165.509 834.964C165.475 834.964 165.458 834.982 165.424 834.982C165.287 834.982 165.167 834.896 165.133 834.759C165.081 834.605 165.184 834.434 165.338 834.382L174.6 831.849L175.302 832.157Z" fill="#656F73"/>
<path d="M122.299 851.245V858.983C121.255 858.915 120.211 858.641 119.269 858.162L112.695 854.857C111.839 854.429 111.291 853.539 111.291 852.581V846.982L121.323 851.451L122.299 851.245Z" fill="#9A9A99"/>
<path d="M145.171 852.016C145.171 853.214 144.349 854.241 143.202 854.498L124.628 858.795C123.857 858.966 123.07 859.035 122.299 858.983V851.245L145.171 846.503V852.016Z" fill="#BBB9B8"/>
<path d="M112.301 848.66L119.081 851.879C120.502 852.547 122.094 852.735 123.635 852.41L143.767 848.095C145.445 847.736 145.685 845.459 144.127 844.74L136.166 841.111C134.694 840.443 133.05 840.289 131.475 840.683L112.627 845.322C111.017 845.733 110.795 847.941 112.301 848.66Z" fill="#E1E1E0"/>
<path d="M119.714 843.576L133.102 850.372V856.843L139.659 855.32V848.968L126.408 841.915L119.714 843.576Z" fill="#EE433C"/>
<path d="M133.102 850.372L139.659 848.969V855.32L133.102 856.844V850.372Z" fill="#C4372E"/>
<path d="M248.728 555.777C247.735 555.298 246.622 555.058 245.527 555.058C243.883 555.058 242.257 555.589 241.076 556.599C237.909 559.286 237.035 563.173 238.833 566.562L243.9 574.694C244.346 575.413 245.407 575.362 245.784 574.591L251.279 563.344C251.741 562.454 251.93 561.58 251.93 560.759C251.912 558.499 250.423 556.616 248.728 555.777ZM248.437 561.974C248.095 563.926 246.229 565.518 244.277 565.518C242.325 565.518 241.024 563.926 241.367 561.974C241.709 560.023 243.575 558.43 245.527 558.43C247.478 558.448 248.78 560.023 248.437 561.974Z" fill="#A5331D"/>
<path d="M245.31 579.656C248.076 578.909 250.174 577.771 249.997 577.114C249.819 576.456 247.433 576.529 244.668 577.276C241.902 578.023 239.804 579.161 239.981 579.818C240.159 580.475 242.545 580.403 245.31 579.656Z" fill="#A5331D"/>
<path d="M250.663 556.342C249.67 555.862 248.557 555.623 247.461 555.623C245.818 555.623 244.191 556.154 243.01 557.164C239.843 559.851 238.97 563.738 240.768 567.127L245.835 575.259C246.28 575.978 247.341 575.927 247.718 575.156L253.214 563.909C253.676 563.019 253.864 562.145 253.864 561.324C253.847 559.064 252.358 557.181 250.663 556.342ZM250.389 562.539C250.046 564.491 248.18 566.083 246.229 566.083C244.277 566.083 242.976 564.491 243.318 562.539C243.661 560.588 245.527 558.995 247.478 558.995C249.413 559.013 250.731 560.588 250.389 562.539Z" fill="white"/>
<path d="M247.245 580.222C250.01 579.475 252.109 578.337 251.931 577.68C251.754 577.023 249.368 577.095 246.602 577.842C243.836 578.589 241.738 579.727 241.916 580.385C242.093 581.042 244.479 580.969 247.245 580.222Z" fill="white"/>
<path d="M329.789 614.309L329.772 625.933C329.772 626.053 329.687 626.173 329.567 626.207L314.553 630.162C314.142 630.265 313.731 629.956 313.731 629.528V618.366C313.731 618.161 313.937 618.024 314.125 618.11L321.846 621.962C321.949 622.013 322.086 621.996 322.171 621.893L329.293 614.104C329.481 613.95 329.789 614.069 329.789 614.309Z" fill="#BC8836"/>
<path d="M314.365 616.706L321.555 609.105C321.641 609.019 321.76 608.985 321.88 609.053L329.413 612.854C329.635 612.974 329.618 613.299 329.362 613.367L314.639 617.185C314.382 617.236 314.176 616.911 314.365 616.706Z" fill="#BC8836"/>
<path d="M330.714 615.233L330.697 626.858C330.697 626.978 330.611 627.097 330.491 627.132L315.478 631.086C315.067 631.189 314.656 630.881 314.656 630.453V619.291C314.656 619.085 314.861 618.948 315.05 619.034L322.77 622.886C322.873 622.937 323.01 622.92 323.096 622.817L330.218 615.028C330.406 614.857 330.714 614.977 330.714 615.233Z" fill="white"/>
<path d="M314.861 617.664L322.052 610.063C322.137 609.978 322.257 609.943 322.377 610.012L329.909 613.812C330.132 613.932 330.115 614.257 329.858 614.326L315.135 618.144C314.878 618.212 314.673 617.87 314.861 617.664Z" fill="white"/>
<path d="M66.044 683.284L61.7641 679.792C63.0823 678.182 63.9726 676.299 64.315 674.313C64.8286 671.454 64.1438 668.749 62.4318 666.695C60.7369 664.675 58.2546 663.579 55.4298 663.579C52.6907 663.579 49.9516 664.641 47.6918 666.541C45.4491 668.441 43.9425 670.992 43.4632 673.714C42.9496 676.573 43.6344 679.278 45.3464 681.332C47.0412 683.353 49.5236 684.448 52.3483 684.448C54.591 684.448 56.8337 683.746 58.8024 682.445L63.5446 686.314C63.9041 686.605 64.3492 686.759 64.7943 686.759C65.3593 686.759 65.9242 686.52 66.318 686.04C67.0199 685.219 66.8829 683.986 66.044 683.284ZM47.9828 679.158C46.9214 677.891 46.5276 676.179 46.8529 674.331C47.5719 670.29 51.4067 667.02 55.4298 667.02C57.2274 667.02 58.7682 667.688 59.7954 668.921C60.8568 670.188 61.2505 671.9 60.9253 673.748C60.2062 677.789 56.3714 681.059 52.3483 681.059C50.5679 681.059 49.01 680.374 47.9828 679.158Z" fill="#0B4B77"/>
<path d="M67.4991 684.483L63.2192 680.99C64.5374 679.381 65.4276 677.498 65.77 675.512C66.2836 672.653 65.5988 669.948 63.8869 667.894C62.192 665.873 59.7097 664.778 56.8849 664.778C54.1458 664.778 51.4066 665.839 49.1468 667.74C46.9042 669.64 45.3976 672.191 44.9183 674.913C44.4047 677.772 45.0895 680.477 46.8014 682.531C48.4963 684.551 50.9786 685.647 53.8034 685.647C56.0461 685.647 58.2887 684.945 60.2575 683.644L64.9997 687.513C65.3592 687.804 65.8043 687.958 66.2494 687.958C66.8143 687.958 67.3793 687.718 67.773 687.239C68.4578 686.417 68.338 685.184 67.4991 684.483ZM49.4379 680.357C48.3764 679.09 47.9827 677.378 48.308 675.529C49.027 671.489 52.8618 668.219 56.8849 668.219C58.6825 668.219 60.2233 668.887 61.2504 670.119C62.3119 671.386 62.7056 673.098 62.3803 674.947C61.6613 678.987 57.8265 682.257 53.8034 682.257C52.0229 682.257 50.465 681.572 49.4379 680.357Z" fill="white"/>
<path d="M1196.85 96.4629C1207.5 89.8298 1210.75 75.8241 1204.11 65.1804C1197.48 54.5367 1183.47 51.2855 1172.83 57.9186C1162.19 64.5518 1158.94 78.5574 1165.57 89.2011C1172.2 99.8448 1186.21 103.096 1196.85 96.4629Z" fill="#F5FBFF"/>
<path d="M1162.39 73.7957C1162.9 75.1105 1163.54 76.3979 1164.31 77.6384C1170.94 88.2821 1184.95 91.5332 1195.59 84.9001C1201.45 81.2467 1205.07 75.3558 1206.03 69.0229C1209.88 78.9897 1206.25 90.6027 1196.85 96.4629C1186.21 103.096 1172.2 99.8448 1165.57 89.2011C1162.59 84.4197 1161.61 78.9609 1162.39 73.7957Z" fill="#D9E3E8"/>
<path d="M1245.02 105.072C1264.48 92.9445 1270.42 67.3374 1258.3 47.8771C1246.17 28.4167 1220.56 22.4724 1201.1 34.6C1181.64 46.7277 1175.7 72.3348 1187.83 91.7952C1199.95 111.256 1225.56 117.2 1245.02 105.072Z" fill="#F5FBFF"/>
<path d="M1181.65 72.948C1182.24 74.1343 1182.89 75.3038 1183.61 76.4514C1195.74 95.9117 1221.34 101.856 1240.8 89.7284C1254.37 81.2774 1261.36 66.2812 1260.25 51.3804C1269.67 70.3112 1263.33 93.6598 1245.02 105.072C1225.56 117.2 1199.95 111.256 1187.83 91.7952C1184.15 85.8955 1182.14 79.4308 1181.65 72.948Z" fill="#D9E3E8"/>
<path d="M1279 96.7197C1289.65 90.0865 1292.9 76.0809 1286.26 65.4372C1279.63 54.7935 1265.62 51.5422 1254.98 58.1754C1244.34 64.8085 1241.09 78.8142 1247.72 89.4579C1254.35 100.102 1268.36 103.353 1279 96.7197Z" fill="#F5FBFF"/>
<path d="M1244.46 74.6663C1244.9 75.6941 1245.43 76.7021 1246.04 77.6813C1252.67 88.3251 1266.68 91.5763 1277.32 84.9431C1283.37 81.1718 1287.03 75.017 1287.84 68.4522C1292.23 78.5959 1288.67 90.6968 1279 96.7197C1268.36 103.353 1254.35 100.102 1247.72 89.4579C1244.86 84.8657 1243.84 79.6481 1244.46 74.6663Z" fill="#D9E3E8"/>
<path d="M1091.39 159.943C1076.64 169.558 1056.7 165.097 1046.84 149.981C1036.99 134.865 1040.96 114.817 1055.7 105.202C1070.45 95.588 1090.4 100.048 1100.25 115.164C1110.11 130.281 1106.14 150.329 1091.39 159.943Z" fill="#F5FBFF"/>
<path d="M1041.61 135.301C1042.09 136.224 1042.63 137.133 1043.21 138.024C1053.06 153.14 1073.01 157.601 1087.75 147.986C1098.03 141.287 1103.07 129.521 1101.85 117.887C1109.6 132.609 1105.27 150.896 1091.39 159.943C1076.64 169.558 1056.7 165.098 1046.84 149.981C1043.86 145.398 1042.14 140.362 1041.61 135.301Z" fill="#D9E3E8"/>
<path d="M1117.99 148.161C1109.92 153.42 1099.01 150.981 1093.62 142.713C1088.23 134.445 1090.4 123.48 1098.47 118.221C1106.53 112.963 1117.44 115.402 1122.83 123.67C1128.22 131.938 1126.05 142.903 1117.99 148.161Z" fill="#F5FBFF"/>
<path d="M1090.74 131.181C1091.11 131.98 1091.54 132.764 1092.03 133.525C1097.42 141.792 1108.33 144.232 1116.4 138.973C1120.98 135.984 1123.66 131.149 1124.13 126.014C1127.77 133.907 1125.31 143.387 1117.99 148.162C1109.92 153.42 1099.01 150.981 1093.62 142.713C1091.3 139.146 1090.38 135.077 1090.74 131.181Z" fill="#D9E3E8"/>
<path d="M1344.83 146.373C1361.04 155.734 1381.5 150.654 1390.52 135.027C1399.54 119.4 1393.71 99.1434 1377.5 89.7826C1361.29 80.4219 1340.83 85.5017 1331.81 101.129C1322.78 116.756 1328.61 137.013 1344.83 146.373Z" fill="#F5FBFF"/>
<path d="M1394.75 119.97C1394.32 120.921 1393.85 121.859 1393.31 122.78C1384.29 138.408 1363.83 143.487 1347.62 134.127C1336.32 127.604 1330.07 115.79 1330.37 103.939C1323.51 119.107 1329.57 137.565 1344.83 146.373C1361.04 155.734 1381.5 150.654 1390.52 135.027C1393.26 130.289 1394.62 125.126 1394.75 119.97Z" fill="#D9E3E8"/>
<path d="M1316.06 135.137C1324.92 140.257 1336.11 137.478 1341.05 128.931C1345.98 120.384 1342.79 109.305 1333.93 104.185C1325.06 99.0654 1313.87 101.844 1308.94 110.391C1304 118.938 1307.19 130.017 1316.06 135.137Z" fill="#F5FBFF"/>
<path d="M1343.09 117.137C1342.77 117.959 1342.39 118.767 1341.94 119.554C1337 128.101 1325.81 130.879 1316.94 125.759C1311.9 122.849 1308.7 118.011 1307.78 112.808C1304.64 120.926 1308 130.488 1316.06 135.137C1324.92 140.257 1336.11 137.478 1341.05 128.931C1343.18 125.244 1343.79 121.085 1343.09 117.137Z" fill="#D9E3E8"/>
<path d="M1430.86 165.499C1444.37 173.296 1461.64 168.669 1469.43 155.163C1477.23 141.658 1472.61 124.388 1459.1 116.591C1445.59 108.793 1428.32 113.421 1420.53 126.926C1412.73 140.432 1417.36 157.702 1430.86 165.499Z" fill="#F5FBFF"/>
<path d="M1472.74 135.885C1472.16 137.54 1471.43 139.167 1470.52 140.741C1462.72 154.246 1445.45 158.874 1431.94 151.076C1424.51 146.781 1419.77 139.612 1418.31 131.782C1413.94 144.33 1418.93 158.61 1430.86 165.499C1444.37 173.296 1461.64 168.669 1469.43 155.163C1472.94 149.096 1473.93 142.271 1472.74 135.885Z" fill="#D9E3E8"/>
<path d="M1371.36 178.217C1396.05 192.473 1427.63 184.013 1441.88 159.32C1456.14 134.627 1447.68 103.052 1422.99 88.7956C1398.29 74.5391 1366.72 82.9995 1352.46 107.693C1338.21 132.385 1346.67 163.96 1371.36 178.217Z" fill="#F5FBFF"/>
<path d="M1448.76 135.639C1448.08 137.138 1447.32 138.618 1446.48 140.074C1432.22 164.767 1400.65 173.228 1375.96 158.971C1358.75 149.037 1349.43 130.693 1350.18 112.128C1339.26 136.05 1348.12 164.801 1371.36 178.217C1396.05 192.473 1427.63 184.013 1441.88 159.32C1446.21 151.834 1448.44 143.715 1448.76 135.639Z" fill="#D9E3E8"/>
<path d="M1328.78 169.261C1342.28 177.058 1359.55 172.431 1367.35 158.925C1375.15 145.42 1370.52 128.15 1357.02 120.352C1343.51 112.555 1326.24 117.182 1318.44 130.688C1310.65 144.194 1315.27 161.463 1328.78 169.261Z" fill="#F5FBFF"/>
<path d="M1370.79 140.406C1370.28 141.702 1369.67 142.977 1368.95 144.219C1361.15 157.725 1343.88 162.352 1330.38 154.555C1322.7 150.121 1317.89 142.625 1316.61 134.501C1311.57 147.291 1316.52 162.181 1328.78 169.261C1342.29 177.058 1359.55 172.431 1367.35 158.925C1370.72 153.098 1371.76 146.571 1370.79 140.406Z" fill="#D9E3E8"/>
<path d="M651.828 244.128C668.041 253.489 688.498 248.409 697.521 232.782C706.543 217.155 700.714 196.898 684.5 187.538C668.287 178.177 647.83 183.257 638.807 198.884C629.785 214.511 635.614 234.767 651.828 244.128Z" fill="#F5FBFF"/>
<path d="M701.754 217.725C701.324 218.676 700.845 219.614 700.313 220.535C691.291 236.162 670.834 241.242 654.62 231.882C643.322 225.359 637.069 213.545 637.367 201.694C630.51 216.862 636.57 235.319 651.828 244.128C668.041 253.489 688.498 248.409 697.521 232.782C700.256 228.044 701.624 222.881 701.754 217.725Z" fill="#D9E3E8"/>
<path d="M623.057 232.892C631.924 238.012 643.113 235.233 648.048 226.686C652.983 218.139 649.794 207.06 640.927 201.94C632.059 196.82 620.87 199.599 615.935 208.146C611 216.693 614.189 227.772 623.057 232.892Z" fill="#F5FBFF"/>
<path d="M650.092 214.892C649.773 215.714 649.389 216.522 648.935 217.309C644.001 225.856 632.812 228.634 623.944 223.514C618.902 220.603 615.7 215.766 614.779 210.563C611.636 218.681 615.005 228.243 623.056 232.892C631.924 238.012 643.113 235.233 648.048 226.686C650.177 222.998 650.791 218.84 650.092 214.892Z" fill="#D9E3E8"/>
<path d="M733.09 244.195C743.772 250.362 757.433 246.702 763.6 236.019C769.768 225.337 766.108 211.676 755.425 205.509C744.742 199.341 731.082 203.001 724.914 213.684C718.747 224.367 722.407 238.027 733.09 244.195Z" fill="#F5FBFF"/>
<path d="M766.211 220.77C765.755 222.079 765.175 223.366 764.456 224.611C758.288 235.294 744.628 238.954 733.945 232.786C728.062 229.389 724.314 223.718 723.16 217.525C719.701 227.45 723.652 238.745 733.09 244.194C743.773 250.362 757.433 246.702 763.6 236.019C766.371 231.22 767.153 225.822 766.211 220.77Z" fill="#D9E3E8"/>
<path d="M686.024 254.254C705.556 265.531 730.531 258.839 741.808 239.307C753.085 219.775 746.392 194.8 726.86 183.523C707.329 172.246 682.353 178.938 671.077 198.47C659.8 218.002 666.492 242.978 686.024 254.254Z" fill="#F5FBFF"/>
<path d="M747.249 220.575C746.708 221.761 746.108 222.932 745.443 224.084C734.166 243.616 709.191 250.308 689.659 239.031C676.049 231.173 668.676 216.663 669.27 201.979C660.636 220.901 667.644 243.642 686.024 254.254C705.556 265.531 730.531 258.839 741.808 239.307C745.227 233.385 746.991 226.964 747.249 220.575Z" fill="#D9E3E8"/>
<path d="M652.343 247.17C663.026 253.338 676.686 249.677 682.854 238.995C689.021 228.312 685.361 214.652 674.678 208.484C663.996 202.316 650.336 205.977 644.168 216.659C638 227.342 641.66 241.002 652.343 247.17Z" fill="#F5FBFF"/>
<path d="M685.57 224.346C685.167 225.371 684.684 226.38 684.117 227.362C677.949 238.045 664.289 241.705 653.606 235.538C647.532 232.031 643.733 226.102 642.715 219.676C638.735 229.793 642.643 241.57 652.343 247.17C663.026 253.338 676.686 249.678 682.854 238.995C685.515 234.386 686.343 229.223 685.57 224.346Z" fill="#D9E3E8"/>
<path d="M836.438 156.461C848.884 148.499 852.518 131.955 844.556 119.51C836.594 107.065 820.051 103.43 807.605 111.392C795.16 119.354 791.526 135.898 799.488 148.343C807.45 160.788 823.993 164.423 836.438 156.461Z" fill="#F5FBFF"/>
<path d="M795.533 130.24C796.15 131.782 796.914 133.29 797.842 134.74C805.804 147.185 822.347 150.82 834.792 142.858C841.647 138.472 845.822 131.483 846.865 124.01C851.545 135.696 847.433 149.426 836.438 156.461C823.993 164.423 807.45 160.788 799.488 148.343C795.911 142.752 794.681 136.336 795.533 130.24Z" fill="#D9E3E8"/>
<path d="M893.299 165.93C916.054 151.373 922.699 121.126 908.141 98.3719C893.584 75.6176 863.337 68.9726 840.583 83.5299C817.829 98.0872 811.184 128.334 825.741 151.088C840.298 173.843 870.545 180.488 893.299 165.93Z" fill="#F5FBFF"/>
<path d="M818.208 128.973C818.92 130.363 819.702 131.731 820.561 133.073C835.118 155.827 865.365 162.472 888.119 147.915C903.975 137.771 912.006 120.008 910.494 102.471C921.856 124.64 914.712 152.232 893.299 165.93C870.545 180.488 840.298 173.843 825.741 151.088C821.327 144.19 818.866 136.603 818.208 128.973Z" fill="#D9E3E8"/>
<path d="M933.211 155.618C945.656 147.656 949.29 131.112 941.328 118.667C933.366 106.222 916.823 102.587 904.378 110.549C891.932 118.511 888.298 135.055 896.26 147.5C904.222 159.945 920.765 163.58 933.211 155.618Z" fill="#F5FBFF"/>
<path d="M892.212 130.121C892.75 131.326 893.382 132.506 894.115 133.651C902.077 146.096 918.62 149.731 931.066 141.769C938.141 137.242 942.364 129.941 943.232 122.196C948.545 134.084 944.511 148.388 933.211 155.617C920.765 163.579 904.222 159.945 896.26 147.5C892.825 142.13 891.553 135.998 892.212 130.121Z" fill="#D9E3E8"/>
<path d="M948.537 163.499C962.043 171.296 979.312 166.669 987.11 153.163C994.907 139.658 990.28 122.388 976.774 114.591C963.269 106.793 945.999 111.421 938.201 124.926C930.404 138.432 935.031 155.702 948.537 163.499Z" fill="#F5FBFF"/>
<path d="M990.41 133.885C989.833 135.54 989.1 137.167 988.192 138.741C980.394 152.246 963.124 156.874 949.619 149.076C942.18 144.781 937.442 137.612 935.983 129.782C931.61 142.33 936.605 156.61 948.537 163.499C962.043 171.296 979.312 166.669 987.11 153.163C990.612 147.096 991.6 140.271 990.41 133.885Z" fill="#D9E3E8"/>
<path d="M889.035 176.217C913.728 190.473 945.303 182.013 959.559 157.32C973.816 132.627 965.355 101.052 940.662 86.7956C915.969 72.5391 884.394 80.9995 870.138 105.693C855.881 130.385 864.342 161.96 889.035 176.217Z" fill="#F5FBFF"/>
<path d="M966.439 133.639C965.755 135.138 964.996 136.618 964.155 138.074C949.899 162.767 918.324 171.228 893.631 156.971C876.424 147.037 867.103 128.693 867.854 110.128C856.939 134.05 865.798 162.801 889.035 176.217C913.728 190.473 945.303 182.013 959.559 157.32C963.881 149.834 966.112 141.715 966.439 133.639Z" fill="#D9E3E8"/>
<path d="M846.454 167.261C859.96 175.058 877.229 170.431 885.027 156.925C892.824 143.42 888.197 126.15 874.691 118.352C861.186 110.555 843.916 115.182 836.118 128.688C828.321 142.194 832.948 159.463 846.454 167.261Z" fill="#F5FBFF"/>
<path d="M888.461 138.406C887.951 139.702 887.341 140.977 886.623 142.219C878.826 155.725 861.556 160.352 848.051 152.555C840.372 148.121 835.568 140.625 834.281 132.501C829.25 145.291 834.191 160.181 846.454 167.261C859.96 175.058 877.229 170.431 885.027 156.925C888.391 151.098 889.438 144.571 888.461 138.406Z" fill="#D9E3E8"/>
<path d="M765.404 89.0028C776.339 82.8629 780.227 69.0204 774.087 58.0847C767.947 47.149 754.105 43.2613 743.169 49.4011C732.233 55.541 728.346 69.3834 734.486 80.3191C740.625 91.2548 754.468 95.1426 765.404 89.0028Z" fill="#F5FBFF"/>
<path d="M732.017 64.7849C732.465 66.1215 733.039 67.4365 733.755 68.711C739.894 79.6467 753.737 83.5344 764.673 77.3945C770.696 74.0128 774.575 68.2932 775.824 62.0108C779.219 72.1433 775.065 83.5785 765.403 89.0028C754.468 95.1427 740.625 91.2549 734.485 80.3192C731.727 75.4067 730.999 69.9088 732.017 64.7849Z" fill="#D9E3E8"/>
<path d="M813.129 99.8041C833.123 88.5783 840.231 63.2696 829.005 43.2754C817.779 23.2812 792.471 16.173 772.476 27.3988C752.482 38.6246 745.374 63.9334 756.6 83.9275C767.826 103.922 793.134 111.03 813.129 99.8041Z" fill="#F5FBFF"/>
<path d="M751.296 64.818C751.832 66.03 752.428 67.228 753.09 68.407C764.316 88.4012 789.624 95.5094 809.619 84.2836C823.551 76.461 831.224 61.8001 830.799 46.8643C839.346 66.2058 831.944 89.2402 813.129 99.8041C793.134 111.03 767.826 103.922 756.6 83.9274C753.197 77.8659 751.481 71.3159 751.296 64.818Z" fill="#D9E3E8"/>
<path d="M847.456 93.0132C858.392 86.8733 862.279 73.0309 856.139 62.0952C850 51.1595 836.157 47.2717 825.222 53.4116C814.286 59.5514 810.398 73.3939 816.538 84.3296C822.678 95.2653 836.52 99.153 847.456 93.0132Z" fill="#F5FBFF"/>
<path d="M813.955 69.4044C814.353 70.4515 814.831 71.4824 815.396 72.4885C821.536 83.4242 835.378 87.312 846.314 81.1721C852.532 77.6813 856.467 71.7 857.58 65.1793C861.503 75.513 857.385 87.4382 847.456 93.0132C836.52 99.1531 822.678 95.2653 816.538 84.3296C813.889 79.6114 813.11 74.3527 813.955 69.4044Z" fill="#D9E3E8"/>
<path d="M765.404 89.0028C776.339 82.8629 780.227 69.0204 774.087 58.0847C767.947 47.149 754.105 43.2613 743.169 49.4011C732.233 55.541 728.346 69.3834 734.486 80.3191C740.625 91.2548 754.468 95.1426 765.404 89.0028Z" fill="#F5FBFF"/>
<path d="M732.017 64.7849C732.465 66.1215 733.039 67.4365 733.755 68.711C739.894 79.6467 753.737 83.5344 764.673 77.3945C770.696 74.0128 774.575 68.2932 775.824 62.0108C779.219 72.1433 775.065 83.5785 765.403 89.0028C754.468 95.1427 740.625 91.2549 734.485 80.3192C731.727 75.4067 730.999 69.9088 732.017 64.7849Z" fill="#D9E3E8"/>
<path d="M813.129 99.8041C833.123 88.5783 840.231 63.2696 829.005 43.2754C817.779 23.2812 792.471 16.173 772.476 27.3988C752.482 38.6246 745.374 63.9334 756.6 83.9275C767.826 103.922 793.134 111.03 813.129 99.8041Z" fill="#F5FBFF"/>
<path d="M751.296 64.818C751.832 66.03 752.428 67.228 753.09 68.407C764.316 88.4012 789.624 95.5094 809.619 84.2836C823.551 76.461 831.224 61.8001 830.799 46.8643C839.346 66.2058 831.944 89.2402 813.129 99.8041C793.134 111.03 767.826 103.922 756.6 83.9274C753.197 77.8659 751.481 71.3159 751.296 64.818Z" fill="#D9E3E8"/>
<path d="M847.456 93.0132C858.392 86.8733 862.279 73.0309 856.139 62.0952C850 51.1595 836.157 47.2717 825.222 53.4116C814.286 59.5514 810.398 73.3939 816.538 84.3296C822.678 95.2653 836.52 99.153 847.456 93.0132Z" fill="#F5FBFF"/>
<path d="M813.955 69.4044C814.353 70.4515 814.831 71.4824 815.396 72.4885C821.536 83.4242 835.378 87.312 846.314 81.1721C852.532 77.6813 856.467 71.7 857.58 65.1793C861.503 75.513 857.385 87.4382 847.456 93.0132C836.52 99.1531 822.678 95.2653 816.538 84.3296C813.889 79.6114 813.11 74.3527 813.955 69.4044Z" fill="#D9E3E8"/>
<path d="M823.66 88.3118C832.056 93.159 842.791 90.2825 847.638 81.8869C852.485 73.4913 849.609 62.7559 841.213 57.9087C832.818 53.0615 822.082 55.9381 817.235 64.3336C812.388 72.7292 815.264 83.4647 823.66 88.3118Z" fill="#F5FBFF"/>
<path d="M849.69 69.9027C849.331 70.9316 848.876 71.9427 848.311 72.9212C843.464 81.3168 832.728 84.1933 824.332 79.3461C819.708 76.6764 816.763 72.2194 815.856 67.3521C813.138 75.1523 816.243 84.0295 823.66 88.3118C832.056 93.159 842.791 90.2824 847.638 81.8868C849.816 78.1153 850.43 73.8726 849.69 69.9027Z" fill="#D9E3E8"/>
<path d="M786.671 96.2177C802.021 105.08 821.649 99.8207 830.512 84.4707C839.374 69.1206 834.115 49.4926 818.765 40.6302C803.415 31.7679 783.787 37.0272 774.924 52.3772C766.062 67.7273 771.321 87.3553 786.671 96.2177Z" fill="#F5FBFF"/>
<path d="M834.788 69.7494C834.363 70.6812 833.891 71.6017 833.369 72.5068C824.507 87.8569 804.879 93.1162 789.528 84.2538C778.832 78.0783 773.038 66.675 773.505 55.1346C766.719 70.005 772.226 87.8778 786.671 96.2175C802.021 105.08 821.649 99.8206 830.512 84.4705C833.199 79.8169 834.585 74.7701 834.788 69.7494Z" fill="#D9E3E8"/>
<path d="M760.202 90.6502C768.597 95.4974 779.333 92.6209 784.18 84.2253C789.027 75.8297 786.15 65.0943 777.755 60.2471C769.359 55.3999 758.624 58.2764 753.777 66.672C748.929 75.0676 751.806 85.803 760.202 90.6502Z" fill="#F5FBFF"/>
<path d="M786.315 72.713C785.998 73.5185 785.618 74.311 785.172 75.0834C780.325 83.4789 769.59 86.3555 761.194 81.5083C756.421 78.7524 753.435 74.0927 752.634 69.0424C749.507 76.9933 752.578 86.2489 760.202 90.6501C768.597 95.4973 779.333 92.6208 784.18 84.2252C786.271 80.6029 786.922 76.5455 786.315 72.713Z" fill="#D9E3E8"/>
<path d="M595.537 155.499C609.043 163.296 626.312 158.669 634.11 145.163C641.907 131.658 637.28 114.388 623.774 106.591C610.269 98.7933 592.999 103.421 585.201 116.926C577.404 130.432 582.031 147.702 595.537 155.499Z" fill="#F5FBFF"/>
<path d="M637.41 125.885C636.833 127.54 636.1 129.167 635.192 130.741C627.394 144.246 610.124 148.874 596.619 141.076C589.18 136.781 584.442 129.612 582.983 121.782C578.61 134.33 583.605 148.61 595.537 155.499C609.043 163.296 626.312 158.669 634.11 145.163C637.612 139.096 638.6 132.271 637.41 125.885Z" fill="#D9E3E8"/>
<path d="M536.035 168.217C560.728 182.473 592.303 174.013 606.559 149.32C620.816 124.627 612.355 93.0521 587.662 78.7956C562.969 64.5391 531.394 72.9995 517.138 97.6925C502.881 122.385 511.342 153.96 536.035 168.217Z" fill="#F5FBFF"/>
<path d="M613.439 125.639C612.755 127.138 611.996 128.618 611.155 130.074C596.899 154.767 565.324 163.228 540.631 148.971C523.424 139.037 514.103 120.693 514.854 102.128C503.939 126.05 512.798 154.801 536.035 168.217C560.728 182.473 592.303 174.013 606.559 149.32C610.881 141.834 613.112 133.715 613.439 125.639Z" fill="#D9E3E8"/>
<path d="M493.454 159.261C506.96 167.058 524.229 162.431 532.027 148.925C539.824 135.42 535.197 118.15 521.691 110.352C508.186 102.555 490.916 107.182 483.118 120.688C475.321 134.194 479.948 151.463 493.454 159.261Z" fill="#F5FBFF"/>
<path d="M535.461 130.406C534.951 131.702 534.341 132.977 533.623 134.219C525.826 147.725 508.556 152.352 495.051 144.555C487.372 140.121 482.568 132.625 481.281 124.501C476.25 137.291 481.191 152.181 493.454 159.261C506.96 167.058 524.229 162.431 532.027 148.925C535.391 143.098 536.438 136.571 535.461 130.406Z" fill="#D9E3E8"/>
</svg>
