<svg width="1704" height="913" viewBox="0 0 1704 913" fill="none" xmlns="http://www.w3.org/2000/svg">
<path d="M1704 0H0V913H1704V0Z" fill="url(#paint0_linear_50_5317)"/>
<path d="M190.409 844.914L146.944 823.865L137.049 824.191L143.107 832.02L186.075 853.691C188.576 854.949 191.606 853.862 192.74 851.314C193.811 848.891 192.771 846.063 190.409 844.914Z" fill="#D1DEE5"/>
<path d="M193.159 849.31C193.159 849.978 193.019 850.646 192.74 851.298C191.606 853.846 188.561 854.933 186.075 853.675L143.107 832.005L137.049 824.175L141.631 824.036L144.521 827.779L187.489 849.45C189.415 850.413 191.652 849.993 193.112 848.58C193.144 848.813 193.159 849.061 193.159 849.31Z" fill="#D1DEE5"/>
<path d="M141.259 824.036C141.259 824.036 141.974 826.614 139.581 827.469L136.863 824.704C136.428 824.253 136.785 823.507 137.422 823.57L141.259 824.036Z" fill="#D1DEE5"/>
<path d="M132.315 806.872C134.274 800.787 126.944 792.984 115.943 789.442C104.943 785.9 94.4369 787.96 92.4778 794.045C90.5188 800.129 97.8484 807.933 108.849 811.475C119.85 815.017 130.355 812.956 132.315 806.872Z" fill="#D1DEE5"/>
<path d="M248.151 774.093L135.449 801.993C133.29 802.521 131.022 801.868 129.484 800.268L124.031 794.567C120.738 791.134 122.4 785.433 127.014 784.283L239.716 756.384C241.875 755.855 244.143 756.508 245.681 758.108L251.134 763.809C254.411 767.258 252.765 772.959 248.151 774.093Z" fill="#D1DEE5"/>
<path d="M159.077 779.188L219.941 764.306L205.681 758.263L144.568 773.145L159.077 779.188Z" fill="#E1E1E0"/>
<path d="M170.573 773.564L165.851 770.147L166.099 756.213L170.573 755.172V773.564Z" fill="#9A9A99"/>
<path d="M311.578 644.163V668.692C311.578 669.593 311.314 670.432 310.848 671.146L279.67 648.015C280.261 647.037 281.208 646.307 282.373 645.996L305.939 639.813C308.797 639.068 311.578 641.211 311.578 644.163Z" fill="#DD9F41"/>
<path d="M310.849 671.146C310.258 672.063 309.326 672.762 308.223 673.041L284.658 679.24C281.815 679.985 279.019 677.842 279.019 674.89V650.346C279.019 649.507 279.252 648.699 279.671 648.016L310.849 671.146Z" fill="#BC8836"/>
<path d="M247.002 658.066L121.313 682.144C120.459 682.346 119.713 682.75 119.092 683.31L110.812 678.603C111.884 677.298 113.36 676.335 115.1 675.931L233.239 648.311C234.279 648.062 235.538 648.062 236.858 648.295C240.167 648.901 243.01 651.029 244.656 653.965L247.002 658.066Z" fill="#BBB9B8"/>
<path d="M120.428 766.496L114.633 765.424C110.532 763.731 108.855 759.117 108.87 755.653L109.072 683.527C109.072 681.678 109.725 679.954 110.843 678.587L119.123 683.294C118.144 684.195 117.538 685.5 117.538 686.914L120.428 766.496Z" fill="#9A9A99"/>
<path d="M201.843 747.87L201.517 757.284L201.486 758.31L201.222 766.496L170.573 773.564V755.001L201.843 747.87Z" fill="#BBB9B8"/>
<path d="M219.941 764.306V770.054L159.031 785.138L159.077 779.188L219.941 764.306Z" fill="#BBB9B8"/>
<path d="M144.568 773.145V778.163L159.031 785.138L159.077 779.188L144.568 773.145Z" fill="#9A9A99"/>
<path d="M252.283 727.008L292.797 717.687C295.515 717.066 297.442 714.642 297.442 711.862V684.381" stroke="#A5A2A0" stroke-width="7" stroke-miterlimit="10" stroke-linecap="round" stroke-linejoin="round" stroke-dasharray="38.05 38.05"/>
<path d="M101.445 763.451L56.6904 773.751L56.8768 742.589" stroke="#A5A2A0" stroke-width="7" stroke-miterlimit="10" stroke-linecap="round" stroke-linejoin="round" stroke-dasharray="38.05 38.05"/>
<path d="M281.721 652.287V675.977C281.721 678.82 284.408 680.902 287.158 680.172L309.9 674.191C311.811 673.694 313.131 671.97 313.131 669.997V646.322C313.131 643.479 310.444 641.398 307.694 642.128L284.952 648.093C283.057 648.59 281.721 650.315 281.721 652.287Z" fill="#FEC64A"/>
<path d="M69.5058 695.147V719.676C69.5058 720.577 69.2417 721.415 68.7757 722.13L37.5981 698.999C38.1885 698.021 39.136 697.291 40.3011 696.98L63.8668 690.797C66.7096 690.052 69.5058 692.195 69.5058 695.147Z" fill="#1A649B"/>
<path d="M68.7753 722.13C68.185 723.047 67.2529 723.746 66.15 724.025L42.5843 730.224C39.7415 730.969 36.9453 728.825 36.9453 725.874V701.33C36.9453 700.491 37.1783 699.683 37.5978 698.999L68.7753 722.13Z" fill="#0B4B77"/>
<path d="M39.6484 703.271V726.961C39.6484 729.804 42.3359 731.886 45.0855 731.155L67.8278 725.175C69.7385 724.678 71.059 722.953 71.059 720.98V697.306C71.059 694.463 68.3715 692.382 65.6219 693.112L42.8796 699.077C40.9844 699.574 39.6484 701.298 39.6484 703.271Z" fill="#207FC3"/>
<path d="M123.255 620.551V645.08C123.255 645.981 122.991 646.819 122.525 647.534L91.3472 624.388C91.9375 623.409 92.8851 622.679 94.0502 622.368L117.616 616.186C120.474 615.44 123.255 617.599 123.255 620.551Z" fill="#8FB133"/>
<path d="M122.524 647.534C121.934 648.45 121.002 649.149 119.899 649.429L96.3333 655.627C93.4905 656.373 90.6943 654.229 90.6943 651.278V626.733C90.6943 625.894 90.9273 625.087 91.3468 624.403L122.524 647.534Z" fill="#779633"/>
<path d="M93.3979 628.66V652.35C93.3979 655.192 96.0854 657.274 98.835 656.544L121.593 650.563C123.504 650.066 124.824 648.342 124.824 646.369V622.694C124.824 619.852 122.137 617.77 119.387 618.5L96.6446 624.465C94.7339 624.962 93.3979 626.687 93.3979 628.66Z" fill="#A1C635"/>
<path d="M109.848 646.54C108.341 646.291 106.881 645.654 105.623 644.613L100.388 640.248C98.5546 638.726 97.4361 636.598 97.2342 634.221C97.0322 631.86 97.7623 629.561 99.2847 627.743C100.17 626.702 101.739 626.563 102.78 627.448C103.821 628.333 103.961 629.902 103.075 630.943C102.407 631.735 102.081 632.745 102.174 633.77C102.267 634.811 102.749 635.743 103.557 636.396L108.807 640.761C110.376 642.066 112.706 641.926 114.089 640.435L114.446 640.062C115.378 639.068 116.963 639.006 117.957 639.953C118.951 640.885 119.013 642.47 118.066 643.464L117.708 643.837C115.642 646.074 112.675 646.99 109.848 646.54Z" fill="#779633"/>
<path d="M112.148 646.54C110.641 646.291 109.181 645.654 107.922 644.613L102.672 640.248C100.839 638.726 99.7203 636.598 99.5183 634.221C99.3164 631.86 100.047 629.561 101.569 627.743C102.454 626.702 104.023 626.563 105.064 627.448C106.105 628.333 106.245 629.902 105.359 630.943C104.691 631.735 104.365 632.745 104.458 633.77C104.551 634.811 105.033 635.743 105.841 636.396L111.091 640.761C112.66 642.066 114.991 641.926 116.373 640.435L116.73 640.062C117.663 639.068 119.247 639.006 120.241 639.953C121.235 640.885 121.298 642.47 120.35 643.464L119.993 643.837C117.942 646.074 114.96 646.99 112.148 646.54Z" fill="white"/>
<path d="M242.684 596.504V621.032C242.684 621.933 242.419 622.772 241.953 623.487L210.776 600.356C211.366 599.377 212.314 598.647 213.479 598.337L237.045 592.154C239.903 591.393 242.684 593.552 242.684 596.504Z" fill="#C83D20"/>
<path d="M241.953 623.487C241.363 624.403 240.431 625.102 239.328 625.382L215.762 631.58C212.919 632.326 210.123 630.182 210.123 627.23V602.686C210.123 601.847 210.356 601.039 210.775 600.356L241.953 623.487Z" fill="#A5331D"/>
<path d="M212.826 604.612V628.302C212.826 631.145 215.513 633.227 218.263 632.497L241.005 626.516C242.916 626.019 244.236 624.295 244.236 622.322V598.647C244.236 595.804 241.549 593.723 238.799 594.453L216.057 600.418C214.162 600.915 212.826 602.64 212.826 604.612Z" fill="#F0492A"/>
<path d="M52.1851 690.642V649.181L85.6617 641.507" stroke="#A5A2A0" stroke-width="7" stroke-miterlimit="10" stroke-linecap="round" stroke-linejoin="round" stroke-dasharray="38.05 38.05"/>
<path d="M249.984 609.071L296.168 598.492V638.213" stroke="#A5A2A0" stroke-width="7" stroke-miterlimit="10" stroke-linecap="round" stroke-linejoin="round" stroke-dasharray="38.05 38.05"/>
<path d="M131.643 633.864L203.226 617.133" stroke="#A5A2A0" stroke-width="7" stroke-miterlimit="10" stroke-linecap="round" stroke-linejoin="round" stroke-dasharray="38.05 38.05"/>
<path d="M160.615 805.021C160.304 805.021 159.994 804.928 159.714 804.742C157.601 803.251 156.001 802.8 155.986 802.8C155.162 802.567 154.665 801.713 154.898 800.889C155.116 800.066 155.97 799.569 156.794 799.786C156.871 799.802 158.906 800.361 161.5 802.194C162.2 802.691 162.37 803.654 161.873 804.369C161.578 804.788 161.097 805.021 160.615 805.021Z" fill="white"/>
<path d="M132.358 801.122C132.358 802.505 131.503 803.732 130.214 804.229L122.649 807.103C117.817 808.936 112.411 808.486 107.953 805.876L90.1506 795.452C89.3895 795.002 88.939 794.194 88.939 793.324C88.939 793.153 88.9545 792.967 89.0011 792.796C89.5914 790.109 91.4711 787.903 94.0342 786.893L95.1527 786.442L96.2867 785.992L96.9858 785.712C97.0324 785.697 97.0945 785.666 97.1411 785.65C97.5139 785.51 97.8868 785.371 98.2596 785.262C102.811 783.833 107.767 784.206 112.07 786.334L128.07 794.225C129.375 794.878 130.447 795.872 131.192 797.068C131.938 798.264 132.358 799.662 132.358 801.122Z" fill="#BBB9B8"/>
<path d="M132.358 801.122C132.358 802.505 131.503 803.732 130.214 804.229L122.649 807.103C117.817 808.936 112.411 808.486 107.953 805.876L90.1506 795.452C89.3895 795.002 88.939 794.194 88.939 793.324C88.939 793.153 88.9545 792.967 89.0011 792.796C89.3273 791.336 90.0264 790.015 91.0206 788.943C91.0827 788.99 91.1448 789.037 91.2225 789.083L109.025 799.507C113.483 802.117 118.889 802.567 123.72 800.734L131.286 797.86C131.394 797.813 131.488 797.782 131.581 797.736C132.078 798.761 132.358 799.926 132.358 801.122Z" fill="#9A9A99"/>
<path d="M114.213 795.499C114.151 795.561 114.074 795.592 114.012 795.592C113.949 795.592 113.872 795.577 113.825 795.514C105.84 788.229 96.5198 786.07 96.4266 786.054C96.38 786.038 96.3489 786.023 96.3179 786.007L97.0169 785.728C97.0635 785.712 97.1257 785.681 97.1723 785.666C99.4247 786.287 107.316 788.804 114.213 795.111C114.307 795.204 114.307 795.375 114.213 795.499Z" fill="#002B42"/>
<path d="M107.27 790.404C106.975 790.839 106.493 791.056 105.996 791.056C105.686 791.056 105.375 790.963 105.095 790.777C102.983 789.285 101.383 788.835 101.367 788.835C100.544 788.602 100.047 787.747 100.28 786.924C100.326 786.722 100.42 786.551 100.544 786.396C100.699 786.877 101.087 787.266 101.616 787.421C101.631 787.421 103.231 787.887 105.344 789.363C105.608 789.549 105.934 789.643 106.245 789.643C106.711 789.643 107.177 789.425 107.488 789.021C107.627 789.472 107.565 789.984 107.27 790.404Z" fill="#C0CACE"/>
<path d="M107.472 789.037C107.177 789.44 106.695 789.658 106.229 789.658C105.918 789.658 105.608 789.565 105.328 789.378C103.215 787.887 101.615 787.437 101.6 787.437C101.072 787.297 100.683 786.893 100.528 786.411C100.901 785.93 101.538 785.681 102.159 785.852C102.252 785.868 104.272 786.427 106.866 788.26C107.177 788.446 107.378 788.726 107.472 789.037Z" fill="#E1E1E0"/>
<path d="M301.062 804.913C314.282 804.913 325 799.488 325 792.796C325 786.104 314.282 780.679 301.062 780.679C287.841 780.679 277.123 786.104 277.123 792.796C277.123 799.488 287.841 804.913 301.062 804.913Z" fill="#D1DEE5"/>
<path d="M297.861 797.052H284.424C278.304 797.052 273.348 792.097 273.348 785.976V752.935H308.937V785.976C308.937 792.097 303.966 797.052 297.861 797.052Z" fill="#EE433C"/>
<path d="M296.696 797.052H284.424C278.304 797.052 273.348 792.097 273.348 785.976V752.935H285.62V785.976C285.62 792.097 290.576 797.052 296.696 797.052Z" fill="#DA3D36"/>
<path d="M308.938 752.935C308.938 753.758 308.487 754.55 307.68 755.265C305.07 757.595 298.639 759.242 291.135 759.242C283.632 759.242 277.201 757.595 274.591 755.265C273.784 754.535 273.333 753.758 273.333 752.935C273.333 749.455 281.302 746.628 291.135 746.628C300.969 746.628 308.938 749.455 308.938 752.935Z" fill="#CB3832"/>
<path d="M307.679 755.265C305.069 757.595 298.638 759.242 291.135 759.242C283.632 759.242 277.201 757.595 274.591 755.265C277.201 752.935 283.632 751.288 291.135 751.288C298.638 751.288 305.069 752.935 307.679 755.265Z" fill="#4A311A"/>
<path d="M317 763.964V778.815C317 783.258 313.38 786.877 308.938 786.877V782.357C310.879 782.357 312.479 780.772 312.479 778.815V763.964C312.479 762.022 310.895 760.422 308.938 760.422V755.902C313.38 755.902 317 759.521 317 763.964Z" fill="#EE433C"/>
<path d="M314.701 763.964V778.815C314.701 782.466 312.262 785.557 308.922 786.551V782.357C310.864 782.357 312.464 780.772 312.464 778.815V763.964C312.464 762.022 310.88 760.422 308.922 760.422V756.228C312.262 757.222 314.701 760.314 314.701 763.964Z" fill="#DA3D36"/>
<path d="M295.997 794.629H298.343C302.63 794.629 306.094 791.149 306.094 786.877V764.927C306.094 764.275 305.566 763.747 304.914 763.747C304.261 763.747 303.733 764.275 303.733 764.927V786.877C303.764 791.149 300.285 794.629 295.997 794.629Z" fill="#F94E4E"/>
<path d="M304.525 762.411C305.401 762.411 306.11 761.701 306.11 760.826C306.11 759.951 305.401 759.242 304.525 759.242C303.65 759.242 302.941 759.951 302.941 760.826C302.941 761.701 303.65 762.411 304.525 762.411Z" fill="#F94E4E"/>
<path d="M290.125 816.237C290.452 815.305 290.141 814.187 289.1 813.643L246.132 791.475C243.988 790.372 241.518 790.093 239.188 790.699L163.272 810.35C162.231 810.614 161.687 811.515 161.687 812.431V812.478C161.687 812.478 161.687 812.478 161.687 812.493V816.035C161.687 818.008 162.79 819.795 164.53 820.696L203.941 841.372C206.55 842.739 209.564 843.112 212.422 842.428L286.91 824.455C288.851 823.989 290.234 822.265 290.234 820.261V816.206L290.125 816.237Z" fill="#D1DEE5"/>
<path d="M205.121 830.56V830.607L160.164 807.786V811.282C160.164 813.192 161.236 814.932 162.929 815.818L201.206 835.904C203.738 837.224 206.658 837.597 209.439 836.929L281.767 819.484C283.662 819.033 284.983 817.356 284.983 815.414V811.484L205.121 830.56Z" fill="#002237"/>
<path d="M283.414 812.804L208.632 831.383C206.395 831.943 204.034 831.663 201.983 830.607L161.283 809.604C159.605 808.734 159.885 806.264 161.718 805.783L235.413 786.691C237.681 786.101 240.073 786.38 242.155 787.452L283.865 808.983C285.543 809.853 285.263 812.354 283.414 812.804Z" fill="#002B42"/>
<path d="M173.291 810.319L203.474 825.651C206.053 826.956 209.004 827.313 211.816 826.63L272.773 812.012C274.373 811.623 274.622 809.464 273.161 808.719L243.149 793.619C240.601 792.33 237.681 791.988 234.9 792.64L173.679 807.025C172.095 807.398 171.83 809.573 173.291 810.319Z" fill="#FEFEFE"/>
<path d="M241.217 810.25C241.409 807.399 233.516 804.545 223.587 803.874C213.658 803.203 205.452 804.97 205.26 807.821C205.067 810.671 212.96 813.525 222.89 814.196C232.819 814.867 241.024 813.1 241.217 810.25Z" stroke="#002B42" stroke-width="7.3979" stroke-miterlimit="10" stroke-linecap="round" stroke-linejoin="round" stroke-dasharray="22.09 22.09"/>
<path d="M226.641 812.945C234.137 806.399 238.69 799.347 236.811 797.195C234.931 795.044 227.331 798.606 219.835 805.153C212.339 811.699 207.786 818.751 209.665 820.902C211.545 823.054 219.145 819.492 226.641 812.945Z" stroke="#002B42" stroke-width="7.3979" stroke-miterlimit="10" stroke-linecap="round" stroke-linejoin="round" stroke-dasharray="22.09 22.09"/>
<path d="M184.818 838.887L141.352 817.822L131.457 818.148L137.515 825.977L180.484 847.648C182.985 848.906 186.014 847.819 187.148 845.271C188.235 842.863 187.194 840.036 184.818 838.887Z" fill="#002B42"/>
<path d="M187.582 843.283C187.582 843.951 187.443 844.619 187.163 845.271C186.029 847.819 182.984 848.906 180.499 847.648L137.531 825.977L131.472 818.148L136.055 818.008L138.944 821.752L181.912 843.422C183.839 844.386 186.076 843.966 187.536 842.553C187.567 842.786 187.582 843.034 187.582 843.283Z" fill="#002237"/>
<path d="M135.683 818.008C135.683 818.008 136.397 820.587 134.005 821.441L131.287 818.676C130.852 818.226 131.209 817.48 131.846 817.542L135.683 818.008Z" fill="#10405B"/>
<path d="M117.507 686.882V763.125C117.507 765.3 119.527 766.9 121.639 766.418L243.802 738.208C245.666 737.773 247.002 736.111 247.002 734.2V659.278C247.002 656.155 244.097 653.841 241.052 654.54L121.282 682.16C119.076 682.657 117.507 684.63 117.507 686.882Z" fill="#002B42"/>
<path d="M125.647 688.048V749.269L238.846 723.295V662.121L125.647 688.048Z" fill="#FEFEFE"/>
<path d="M247.002 728.391V734.62C247.002 736.298 245.852 737.742 244.221 738.115L121.671 766.403C119.542 766.9 117.507 765.269 117.507 763.094V758.17L247.002 728.391Z" fill="#E1E1E0"/>
<path d="M216.602 711.488C217.608 706.675 204.82 699.931 188.04 696.424C171.26 692.917 156.842 693.975 155.836 698.787C154.831 703.599 167.618 710.344 184.398 713.851C201.178 717.358 215.596 716.3 216.602 711.488Z" stroke="#002B42" stroke-width="7" stroke-miterlimit="10" stroke-linecap="round" stroke-linejoin="round" stroke-dasharray="38.05 38.05"/>
<path d="M191.075 712.59C205.419 703.205 214.865 692.262 212.174 688.148C209.482 684.034 195.672 688.308 181.328 697.693C166.984 707.078 157.537 718.021 160.229 722.134C162.92 726.248 176.731 721.975 191.075 712.59Z" stroke="#002B42" stroke-width="7" stroke-miterlimit="10" stroke-linecap="round" stroke-linejoin="round" stroke-dasharray="38.05 38.05"/>
<path d="M186.123 749.704C187.727 749.704 189.028 748.403 189.028 746.799C189.028 745.194 187.727 743.894 186.123 743.894C184.518 743.894 183.218 745.194 183.218 746.799C183.218 748.403 184.518 749.704 186.123 749.704Z" fill="#9A9A99"/>
<path d="M191.995 746.783C192.793 746.783 193.44 746.136 193.44 745.338C193.44 744.541 192.793 743.894 191.995 743.894C191.197 743.894 190.55 744.541 190.55 745.338C190.55 746.136 191.197 746.783 191.995 746.783Z" fill="#BBB9B8"/>
<path d="M180.312 749.688C181.11 749.688 181.757 749.041 181.757 748.243C181.757 747.445 181.11 746.799 180.312 746.799C179.514 746.799 178.868 747.445 178.868 748.243C178.868 749.041 179.514 749.688 180.312 749.688Z" fill="#BBB9B8"/>
<path d="M33 813.612V820.634C33 823.414 34.336 826.009 36.5884 827.64L84.3412 861.924C86.3762 863.384 88.9393 863.881 91.3627 863.307L134.657 852.961C137.702 852.231 139.846 849.481 139.783 846.343L139.675 840.083L88.6752 852.51L33 813.612Z" fill="#779633"/>
<path d="M138.618 836.82C140.607 838.001 140.156 840.999 137.904 841.543L126.238 844.355L93.1182 852.339C90.1046 853.069 86.92 852.479 84.3724 850.708L80.8927 848.3L73.9333 843.469L72.0381 842.149L69.2419 840.207L35.2216 816.595L34.74 816.253L34.1186 815.818C32.2856 814.544 32.8137 811.717 34.9885 811.189L73.6692 801.852C76.4188 801.184 79.3237 801.619 81.7626 803.064L83.4869 804.089L84.3413 804.586L89.5919 807.709L94.9513 810.893L122.742 827.375L125.927 829.271L127.449 830.172L135.714 835.065L138.618 836.82Z" fill="#A1C635"/>
<path d="M139.752 844.075L90.1665 855.462C89.2344 855.679 88.5664 856.503 88.5664 857.466C88.5664 858.786 89.7936 859.765 91.0985 859.47L138.665 848.456C139.302 848.3 139.752 847.741 139.752 847.073V844.075Z" fill="white"/>
<path d="M97.856 812.587L46.1265 824.175V834.475L54.282 840.331L54.5927 830.218L107.549 818.397L97.856 812.587Z" fill="#FEC64A"/>
<path d="M46.1265 824.175L54.5927 830.218L54.282 840.331L46.1265 834.475V824.175Z" fill="#BC8836"/>
<path d="M169.236 860.774C169.236 862.421 168.102 863.85 166.502 864.223L149.585 868.169C149.29 868.231 148.979 868.262 148.684 868.262V860.93L169.236 856.176V860.774Z" fill="#14598B"/>
<path d="M148.684 860.93V868.262C148.125 868.247 147.581 868.107 147.084 867.827L139.768 863.835C138.634 863.213 137.919 862.017 137.919 860.728V856.642L148.125 861.039L148.684 860.93Z" fill="#1B68A1"/>
<path d="M168.165 857.341L149.57 861.427C148.281 861.707 146.929 861.567 145.718 861.023L138.712 857.854C137.531 857.326 137.686 855.602 138.945 855.291L156.483 850.957C157.788 850.631 159.17 850.755 160.413 851.283L162.122 852.029V852.65L165.881 854.343L166.906 854.095L168.413 854.747C169.641 855.291 169.47 857.062 168.165 857.341Z" fill="#207FC3"/>
<path d="M165.927 854.374L153.578 857.388L149.803 855.477L149.119 855.136L161.22 852.246L162.137 852.65L165.896 854.359L165.927 854.374Z" fill="#D1DEE5"/>
<path d="M162.137 852.029V852.666L149.803 855.477L149.119 855.136L161.22 852.246L162.137 852.029Z" fill="#14598B"/>
<path d="M154.2 856.402C154.436 856.203 154.443 855.824 154.216 855.555C153.988 855.286 153.613 855.23 153.377 855.43C153.141 855.629 153.134 856.009 153.361 856.277C153.589 856.546 153.964 856.602 154.2 856.402Z" fill="#869096"/>
<path d="M163.939 853.473C163.908 853.551 163.846 853.598 163.768 853.629L155.053 856.021C155.022 856.021 155.006 856.037 154.975 856.037C154.851 856.037 154.742 855.959 154.711 855.835C154.665 855.695 154.758 855.539 154.898 855.493L163.302 853.194L163.939 853.473Z" fill="#656F73"/>
<path d="M115.845 870.794V877.816C114.897 877.754 113.949 877.505 113.095 877.07L107.13 874.072C106.353 873.684 105.856 872.876 105.856 872.006V866.926L114.959 870.981L115.845 870.794Z" fill="#9A9A99"/>
<path d="M136.599 871.493C136.599 872.581 135.854 873.513 134.813 873.746L117.958 877.645C117.259 877.8 116.544 877.863 115.845 877.816V870.794L136.599 866.491V871.493Z" fill="#BBB9B8"/>
<path d="M106.773 868.449L112.924 871.369C114.214 871.975 115.659 872.146 117.057 871.851L135.325 867.936C136.847 867.61 137.065 865.544 135.651 864.891L128.428 861.598C127.092 860.992 125.601 860.852 124.171 861.21L107.068 865.419C105.608 865.792 105.406 867.796 106.773 868.449Z" fill="#E1E1E0"/>
<path d="M113.5 863.835L125.647 870.002V875.874L131.597 874.491V868.728L119.573 862.328L113.5 863.835Z" fill="#EE433C"/>
<path d="M125.647 870.002L131.597 868.728V874.492L125.647 875.874V870.002Z" fill="#C4372E"/>
<path d="M230.567 602.686C229.666 602.251 228.656 602.034 227.662 602.034C226.171 602.034 224.695 602.515 223.623 603.432C220.749 605.871 219.957 609.397 221.588 612.473L226.186 619.852C226.59 620.504 227.553 620.457 227.895 619.758L232.881 609.552C233.301 608.745 233.472 607.952 233.472 607.207C233.456 605.156 232.105 603.447 230.567 602.686ZM230.303 608.31C229.992 610.081 228.299 611.525 226.528 611.525C224.757 611.525 223.576 610.081 223.887 608.31C224.198 606.539 225.891 605.094 227.662 605.094C229.433 605.109 230.613 606.539 230.303 608.31Z" fill="#A5331D"/>
<path d="M227.465 624.354C229.974 623.676 231.878 622.643 231.717 622.047C231.556 621.451 229.391 621.517 226.881 622.194C224.372 622.872 222.468 623.905 222.629 624.501C222.79 625.098 224.955 625.032 227.465 624.354Z" fill="#A5331D"/>
<path d="M232.321 603.199C231.42 602.764 230.41 602.546 229.416 602.546C227.925 602.546 226.449 603.028 225.377 603.944C222.503 606.383 221.711 609.91 223.342 612.985L227.94 620.364C228.344 621.017 229.307 620.97 229.649 620.271L234.636 610.065C235.055 609.257 235.226 608.465 235.226 607.719C235.211 605.669 233.859 603.96 232.321 603.199ZM232.073 608.822C231.762 610.593 230.069 612.038 228.298 612.038C226.527 612.038 225.346 610.593 225.657 608.822C225.968 607.051 227.661 605.607 229.432 605.607C231.187 605.622 232.383 607.051 232.073 608.822Z" fill="white"/>
<path d="M229.22 624.868C231.73 624.19 233.634 623.157 233.472 622.561C233.311 621.965 231.146 622.031 228.637 622.708C226.127 623.386 224.223 624.419 224.384 625.015C224.545 625.612 226.71 625.546 229.22 624.868Z" fill="white"/>
<path d="M304.121 655.798L304.106 666.346C304.106 666.455 304.028 666.563 303.919 666.594L290.295 670.183C289.923 670.276 289.55 669.996 289.55 669.608V659.48C289.55 659.293 289.736 659.169 289.907 659.247L296.913 662.742C297.006 662.788 297.131 662.773 297.208 662.68L303.671 655.612C303.841 655.472 304.121 655.581 304.121 655.798Z" fill="#BC8836"/>
<path d="M290.124 657.973L296.649 651.076C296.727 650.998 296.835 650.967 296.944 651.029L303.779 654.478C303.981 654.587 303.966 654.882 303.733 654.944L290.373 658.408C290.14 658.455 289.954 658.159 290.124 657.973Z" fill="#BC8836"/>
<path d="M304.959 656.637L304.944 667.185C304.944 667.293 304.866 667.402 304.757 667.433L291.134 671.022C290.761 671.115 290.388 670.835 290.388 670.447V660.318C290.388 660.132 290.575 660.008 290.745 660.085L297.751 663.581C297.845 663.627 297.969 663.612 298.047 663.519L304.509 656.45C304.68 656.295 304.959 656.404 304.959 656.637Z" fill="white"/>
<path d="M290.575 658.843L297.099 651.946C297.177 651.868 297.286 651.837 297.394 651.899L304.229 655.348C304.431 655.456 304.416 655.751 304.183 655.814L290.823 659.278C290.59 659.34 290.404 659.029 290.575 658.843Z" fill="white"/>
<path d="M64.7994 718.386L60.9158 715.217C62.112 713.757 62.9198 712.048 63.2304 710.246C63.6965 707.652 63.0751 705.198 61.5217 703.333C59.9838 701.5 57.7313 700.506 55.1681 700.506C52.6826 700.506 50.1971 701.469 48.1466 703.194C46.1116 704.918 44.7445 707.233 44.3096 709.703C43.8435 712.297 44.4649 714.751 46.0183 716.615C47.5563 718.448 49.8087 719.443 52.3719 719.443C54.4069 719.443 56.4419 718.806 58.2284 717.625L62.5314 721.136C62.8576 721.4 63.2615 721.54 63.6654 721.54C64.178 721.54 64.6907 721.322 65.048 720.887C65.6849 720.142 65.5606 719.023 64.7994 718.386ZM48.4106 714.643C47.4475 713.493 47.0902 711.94 47.3854 710.262C48.0378 706.596 51.5175 703.629 55.1681 703.629C56.7992 703.629 58.1973 704.234 59.1294 705.353C60.0925 706.503 60.4498 708.056 60.1546 709.734C59.5022 713.4 56.0225 716.367 52.3719 716.367C50.7563 716.367 49.3427 715.745 48.4106 714.643Z" fill="#0B4B77"/>
<path d="M66.1192 719.474L62.2356 716.305C63.4318 714.844 64.2396 713.136 64.5503 711.334C65.0163 708.739 64.3949 706.285 62.8415 704.421C61.3036 702.588 59.0511 701.594 56.4879 701.594C54.0024 701.594 51.5169 702.557 49.4664 704.281C47.4314 706.005 46.0644 708.32 45.6294 710.79C45.1634 713.384 45.7847 715.839 47.3382 717.703C48.8761 719.536 51.1286 720.53 53.6917 720.53C55.7267 720.53 57.7617 719.893 59.5482 718.713L63.8512 722.223C64.1774 722.487 64.5813 722.627 64.9852 722.627C65.4979 722.627 66.0105 722.41 66.3678 721.975C66.9892 721.229 66.8804 720.111 66.1192 719.474ZM49.7305 715.73C48.7673 714.58 48.41 713.027 48.7052 711.349C49.3576 707.683 52.8373 704.716 56.4879 704.716C58.119 704.716 59.5171 705.322 60.4492 706.44C61.4123 707.59 61.7696 709.143 61.4745 710.821C60.822 714.487 57.3423 717.454 53.6917 717.454C52.0762 717.454 50.6625 716.833 49.7305 715.73Z" fill="white"/>
<path d="M754.438 283.706C766.884 275.744 770.518 259.2 762.556 246.755C754.594 234.31 738.051 230.676 725.605 238.638C713.16 246.6 709.526 263.143 717.488 275.588C725.45 288.033 741.993 291.668 754.438 283.706Z" fill="#F5FBFF"/>
<path d="M713.533 257.486C714.15 259.027 714.914 260.535 715.842 261.985C723.804 274.431 740.347 278.065 752.792 270.103C759.647 265.718 763.822 258.728 764.865 251.255C769.545 262.941 765.433 276.672 754.438 283.706C741.993 291.668 725.45 288.033 717.488 275.588C713.911 269.997 712.681 263.581 713.533 257.486Z" fill="#D9E3E8"/>
<path d="M811.299 293.175C834.053 278.618 840.698 248.371 826.141 225.617C811.584 202.863 781.337 196.218 758.583 210.775C735.828 225.332 729.183 255.579 743.741 278.333C758.298 301.088 788.545 307.733 811.299 293.175Z" fill="#F5FBFF"/>
<path d="M736.208 256.218C736.92 257.608 737.702 258.976 738.561 260.318C753.118 283.072 783.365 289.717 806.119 275.16C821.975 265.016 830.006 247.253 828.494 229.716C839.856 251.885 832.712 279.477 811.299 293.175C788.545 307.733 758.298 301.088 743.741 278.333C739.327 271.435 736.866 263.848 736.208 256.218Z" fill="#D9E3E8"/>
<path d="M851.211 282.863C863.656 274.901 867.29 258.357 859.328 245.912C851.366 233.467 834.823 229.832 822.378 237.794C809.932 245.756 806.298 262.3 814.26 274.745C822.222 287.19 838.765 290.825 851.211 282.863Z" fill="#F5FBFF"/>
<path d="M810.212 257.367C810.75 258.571 811.382 259.751 812.115 260.896C820.077 273.341 836.62 276.976 849.066 269.014C856.141 264.487 860.364 257.186 861.232 249.441C866.545 261.329 862.511 275.633 851.211 282.863C838.765 290.825 822.222 287.19 814.26 274.745C810.825 269.375 809.553 263.243 810.212 257.367Z" fill="#D9E3E8"/>
<path d="M389.851 222.708C400.495 216.075 403.746 202.069 397.113 191.425C390.48 180.782 376.474 177.53 365.831 184.164C355.187 190.797 351.936 204.802 358.569 215.446C365.202 226.09 379.208 229.341 389.851 222.708Z" fill="#F5FBFF"/>
<path d="M355.394 200.041C355.902 201.356 356.535 202.643 357.308 203.883C363.942 214.527 377.947 217.778 388.591 211.145C394.453 207.492 398.067 201.601 399.028 195.268C402.882 205.235 399.255 216.848 389.851 222.708C379.208 229.341 365.202 226.09 358.569 215.446C355.589 210.665 354.61 205.206 355.394 200.041Z" fill="#D9E3E8"/>
<path d="M438.02 231.317C457.481 219.19 463.425 193.583 451.297 174.122C439.17 154.662 413.563 148.717 394.102 160.845C374.642 172.973 368.698 198.58 380.825 218.04C392.953 237.501 418.56 243.445 438.02 231.317Z" fill="#F5FBFF"/>
<path d="M374.654 199.193C375.244 200.379 375.894 201.549 376.609 202.696C388.737 222.157 414.344 228.101 433.804 215.973C447.365 207.522 454.36 192.526 453.253 177.625C462.674 196.556 456.333 219.905 438.02 231.317C418.56 243.445 392.953 237.501 380.825 218.04C377.148 212.14 375.135 205.676 374.654 199.193Z" fill="#D9E3E8"/>
<path d="M472.001 222.965C482.645 216.332 485.896 202.326 479.263 191.682C472.63 181.039 458.624 177.787 447.981 184.421C437.337 191.054 434.086 205.059 440.719 215.703C447.352 226.347 461.358 229.598 472.001 222.965Z" fill="#F5FBFF"/>
<path d="M437.457 200.912C437.902 201.939 438.427 202.947 439.037 203.927C445.67 214.57 459.676 217.822 470.32 211.188C476.371 207.417 480.029 201.262 480.843 194.697C485.234 204.841 481.666 216.942 472.001 222.965C461.358 229.598 447.352 226.347 440.719 215.703C437.857 211.111 436.839 205.893 437.457 200.912Z" fill="#D9E3E8"/>
<path d="M1603.92 218.858C1614.35 212.359 1617.54 198.637 1611.04 188.208C1604.54 177.78 1590.82 174.594 1580.39 181.093C1569.96 187.593 1566.78 201.315 1573.27 211.743C1579.77 222.172 1593.5 225.357 1603.92 218.858Z" fill="#F5FBFF"/>
<path d="M1570.16 196.65C1570.66 197.938 1571.28 199.199 1572.04 200.415C1578.54 210.843 1592.26 214.029 1602.69 207.53C1608.43 203.95 1611.97 198.178 1612.91 191.973C1616.69 201.739 1613.14 213.117 1603.92 218.859C1593.5 225.358 1579.77 222.172 1573.27 211.744C1570.35 207.059 1569.4 201.71 1570.16 196.65Z" fill="#D9E3E8"/>
<path d="M1651.12 227.294C1670.19 215.411 1676.01 190.322 1664.13 171.255C1652.24 152.188 1627.16 146.364 1608.09 158.247C1589.02 170.129 1583.2 195.218 1595.08 214.285C1606.96 233.352 1632.05 239.176 1651.12 227.294Z" fill="#F5FBFF"/>
<path d="M1589.03 195.819C1589.61 196.981 1590.25 198.127 1590.95 199.252C1602.83 218.318 1627.92 224.143 1646.99 212.26C1660.28 203.98 1667.13 189.287 1666.04 174.688C1675.28 193.236 1669.06 216.112 1651.12 227.294C1632.05 239.176 1606.96 233.352 1595.08 214.285C1591.48 208.505 1589.51 202.171 1589.03 195.819Z" fill="#D9E3E8"/>
<path d="M1684.41 219.11C1694.84 212.611 1698.03 198.889 1691.53 188.46C1685.03 178.032 1671.31 174.846 1660.88 181.345C1650.45 187.844 1647.26 201.567 1653.76 211.995C1660.26 222.424 1673.98 225.609 1684.41 219.11Z" fill="#F5FBFF"/>
<path d="M1650.57 197.503C1651 198.51 1651.52 199.497 1652.12 200.457C1658.61 210.885 1672.34 214.071 1682.77 207.572C1688.69 203.877 1692.28 197.846 1693.08 191.414C1697.38 201.353 1693.88 213.209 1684.41 219.11C1673.98 225.609 1660.26 222.424 1653.76 211.995C1650.96 207.496 1649.96 202.384 1650.57 197.503Z" fill="#D9E3E8"/>
<path d="M1213.4 328.248C1224.34 322.108 1228.23 308.265 1222.09 297.33C1215.95 286.394 1202.1 282.506 1191.17 288.646C1180.23 294.786 1176.35 308.629 1182.49 319.564C1188.63 330.5 1202.47 334.388 1213.4 328.248Z" fill="#F5FBFF"/>
<path d="M1180.02 304.03C1180.47 305.367 1181.04 306.681 1181.75 307.956C1187.89 318.892 1201.74 322.779 1212.67 316.64C1218.7 313.258 1222.57 307.538 1223.82 301.256C1227.22 311.388 1223.06 322.823 1213.4 328.248C1202.47 334.388 1188.63 330.5 1182.49 319.564C1179.73 314.652 1179 309.154 1180.02 304.03Z" fill="#D9E3E8"/>
<path d="M1261.13 339.049C1281.12 327.823 1288.23 302.515 1277.01 282.52C1265.78 262.526 1240.47 255.418 1220.48 266.644C1200.48 277.87 1193.37 303.178 1204.6 323.173C1215.83 343.167 1241.13 350.275 1261.13 339.049Z" fill="#F5FBFF"/>
<path d="M1199.3 304.063C1199.83 305.275 1200.43 306.473 1201.09 307.652C1212.32 327.646 1237.62 334.754 1257.62 323.529C1271.55 315.706 1279.22 301.045 1278.8 286.109C1287.35 305.451 1279.94 328.485 1261.13 339.049C1241.13 350.275 1215.83 343.167 1204.6 323.173C1201.2 317.111 1199.48 310.561 1199.3 304.063Z" fill="#D9E3E8"/>
<path d="M1295.46 332.258C1306.39 326.118 1310.28 312.276 1304.14 301.34C1298 290.404 1284.16 286.517 1273.22 292.657C1262.29 298.796 1258.4 312.639 1264.54 323.575C1270.68 334.51 1284.52 338.398 1295.46 332.258Z" fill="#F5FBFF"/>
<path d="M1261.96 308.649C1262.35 309.696 1262.83 310.727 1263.4 311.733C1269.54 322.669 1283.38 326.557 1294.31 320.417C1300.53 316.926 1304.47 310.945 1305.58 304.424C1309.5 314.758 1305.39 326.683 1295.46 332.258C1284.52 338.398 1270.68 334.51 1264.54 323.575C1261.89 318.856 1261.11 313.598 1261.96 308.649Z" fill="#D9E3E8"/>
<path d="M1213.4 328.248C1224.34 322.108 1228.23 308.265 1222.09 297.33C1215.95 286.394 1202.1 282.506 1191.17 288.646C1180.23 294.786 1176.35 308.629 1182.49 319.564C1188.63 330.5 1202.47 334.388 1213.4 328.248Z" fill="#F5FBFF"/>
<path d="M1180.02 304.03C1180.47 305.367 1181.04 306.681 1181.75 307.956C1187.89 318.892 1201.74 322.779 1212.67 316.64C1218.7 313.258 1222.57 307.538 1223.82 301.256C1227.22 311.388 1223.06 322.823 1213.4 328.248C1202.47 334.388 1188.63 330.5 1182.49 319.564C1179.73 314.652 1179 309.154 1180.02 304.03Z" fill="#D9E3E8"/>
<path d="M1261.13 339.049C1281.12 327.823 1288.23 302.515 1277.01 282.52C1265.78 262.526 1240.47 255.418 1220.48 266.644C1200.48 277.87 1193.37 303.178 1204.6 323.173C1215.83 343.167 1241.13 350.275 1261.13 339.049Z" fill="#F5FBFF"/>
<path d="M1199.3 304.063C1199.83 305.275 1200.43 306.473 1201.09 307.652C1212.32 327.646 1237.62 334.754 1257.62 323.529C1271.55 315.706 1279.22 301.045 1278.8 286.109C1287.35 305.451 1279.94 328.485 1261.13 339.049C1241.13 350.275 1215.83 343.167 1204.6 323.173C1201.2 317.111 1199.48 310.561 1199.3 304.063Z" fill="#D9E3E8"/>
<path d="M1295.46 332.258C1306.39 326.118 1310.28 312.276 1304.14 301.34C1298 290.404 1284.16 286.517 1273.22 292.657C1262.29 298.796 1258.4 312.639 1264.54 323.575C1270.68 334.51 1284.52 338.398 1295.46 332.258Z" fill="#F5FBFF"/>
<path d="M1261.96 308.649C1262.35 309.696 1262.83 310.727 1263.4 311.733C1269.54 322.669 1283.38 326.557 1294.31 320.417C1300.53 316.926 1304.47 310.945 1305.58 304.424C1309.5 314.758 1305.39 326.683 1295.46 332.258C1284.52 338.398 1270.68 334.51 1264.54 323.575C1261.89 318.856 1261.11 313.598 1261.96 308.649Z" fill="#D9E3E8"/>
<path d="M966.404 334.248C977.339 328.108 981.227 314.265 975.087 303.33C968.947 292.394 955.105 288.506 944.169 294.646C933.233 300.786 929.346 314.629 935.486 325.564C941.625 336.5 955.468 340.388 966.404 334.248Z" fill="#F5FBFF"/>
<path d="M933.017 310.03C933.465 311.367 934.039 312.681 934.755 313.956C940.894 324.892 954.737 328.779 965.673 322.64C971.696 319.258 975.575 313.538 976.824 307.256C980.219 317.388 976.065 328.823 966.403 334.248C955.468 340.388 941.625 336.5 935.485 325.564C932.727 320.652 931.999 315.154 933.017 310.03Z" fill="#D9E3E8"/>
<path d="M1014.13 345.049C1034.12 333.823 1041.23 308.515 1030.01 288.52C1018.78 268.526 993.471 261.418 973.476 272.644C953.482 283.87 946.374 309.178 957.6 329.173C968.826 349.167 994.134 356.275 1014.13 345.049Z" fill="#F5FBFF"/>
<path d="M952.296 310.063C952.832 311.275 953.428 312.473 954.09 313.652C965.316 333.646 990.624 340.754 1010.62 329.529C1024.55 321.706 1032.22 307.045 1031.8 292.109C1040.35 311.451 1032.94 334.485 1014.13 345.049C994.134 356.275 968.826 349.167 957.6 329.173C954.197 323.111 952.481 316.561 952.296 310.063Z" fill="#D9E3E8"/>
<path d="M1048.46 338.258C1059.39 332.118 1063.28 318.276 1057.14 307.34C1051 296.404 1037.16 292.517 1026.22 298.657C1015.29 304.796 1011.4 318.639 1017.54 329.575C1023.68 340.51 1037.52 344.398 1048.46 338.258Z" fill="#F5FBFF"/>
<path d="M1014.96 314.649C1015.35 315.696 1015.83 316.727 1016.4 317.733C1022.54 328.669 1036.38 332.557 1047.31 326.417C1053.53 322.926 1057.47 316.945 1058.58 310.424C1062.5 320.758 1058.39 332.683 1048.46 338.258C1037.52 344.398 1023.68 340.51 1017.54 329.575C1014.89 324.856 1014.11 319.598 1014.96 314.649Z" fill="#D9E3E8"/>
<path d="M966.404 334.248C977.339 328.108 981.227 314.265 975.087 303.33C968.947 292.394 955.105 288.506 944.169 294.646C933.233 300.786 929.346 314.629 935.486 325.564C941.625 336.5 955.468 340.388 966.404 334.248Z" fill="#F5FBFF"/>
<path d="M933.017 310.03C933.465 311.367 934.039 312.681 934.755 313.956C940.894 324.892 954.737 328.779 965.673 322.64C971.696 319.258 975.575 313.538 976.824 307.256C980.219 317.388 976.065 328.823 966.403 334.248C955.468 340.388 941.625 336.5 935.485 325.564C932.727 320.652 931.999 315.154 933.017 310.03Z" fill="#D9E3E8"/>
<path d="M1014.13 345.049C1034.12 333.823 1041.23 308.515 1030.01 288.52C1018.78 268.526 993.471 261.418 973.476 272.644C953.482 283.87 946.374 309.178 957.6 329.173C968.826 349.167 994.134 356.275 1014.13 345.049Z" fill="#F5FBFF"/>
<path d="M952.296 310.063C952.832 311.275 953.428 312.473 954.09 313.652C965.316 333.646 990.624 340.754 1010.62 329.529C1024.55 321.706 1032.22 307.045 1031.8 292.109C1040.35 311.451 1032.94 334.485 1014.13 345.049C994.134 356.275 968.826 349.167 957.6 329.173C954.197 323.111 952.481 316.561 952.296 310.063Z" fill="#D9E3E8"/>
<path d="M1048.46 338.258C1059.39 332.118 1063.28 318.276 1057.14 307.34C1051 296.404 1037.16 292.517 1026.22 298.657C1015.29 304.796 1011.4 318.639 1017.54 329.575C1023.68 340.51 1037.52 344.398 1048.46 338.258Z" fill="#F5FBFF"/>
<path d="M1014.96 314.649C1015.35 315.696 1015.83 316.727 1016.4 317.733C1022.54 328.669 1036.38 332.557 1047.31 326.417C1053.53 322.926 1057.47 316.945 1058.58 310.424C1062.5 320.758 1058.39 332.683 1048.46 338.258C1037.52 344.398 1023.68 340.51 1017.54 329.575C1014.89 324.856 1014.11 319.598 1014.96 314.649Z" fill="#D9E3E8"/>
<path d="M1094.83 182.373C1111.04 191.734 1131.5 186.654 1140.52 171.027C1149.54 155.4 1143.71 135.143 1127.5 125.783C1111.29 116.422 1090.83 121.502 1081.81 137.129C1072.78 152.756 1078.61 173.013 1094.83 182.373Z" fill="#F5FBFF"/>
<path d="M1144.75 155.97C1144.32 156.921 1143.85 157.859 1143.31 158.78C1134.29 174.408 1113.83 179.487 1097.62 170.127C1086.32 163.604 1080.07 151.79 1080.37 139.939C1073.51 155.107 1079.57 173.565 1094.83 182.373C1111.04 191.734 1131.5 186.654 1140.52 171.027C1143.26 166.289 1144.62 161.126 1144.75 155.97Z" fill="#D9E3E8"/>
<path d="M1066.06 171.137C1074.92 176.257 1086.11 173.478 1091.05 164.931C1095.98 156.384 1092.79 145.305 1083.93 140.185C1075.06 135.065 1063.87 137.844 1058.94 146.391C1054 154.938 1057.19 166.017 1066.06 171.137Z" fill="#F5FBFF"/>
<path d="M1093.09 153.137C1092.77 153.959 1092.39 154.767 1091.94 155.554C1087 164.101 1075.81 166.879 1066.94 161.759C1061.9 158.849 1058.7 154.011 1057.78 148.808C1054.64 156.927 1058 166.488 1066.06 171.137C1074.92 176.257 1086.11 173.479 1091.05 164.931C1093.18 161.244 1093.79 157.085 1093.09 153.137Z" fill="#D9E3E8"/>
<path d="M640.828 206.373C657.041 215.734 677.498 210.654 686.521 195.027C695.543 179.4 689.714 159.143 673.5 149.783C657.287 140.422 636.83 145.502 627.807 161.129C618.785 176.756 624.614 197.013 640.828 206.373Z" fill="#F5FBFF"/>
<path d="M690.753 179.97C690.324 180.921 689.845 181.859 689.313 182.78C680.291 198.408 659.833 203.487 643.62 194.127C632.322 187.604 626.069 175.79 626.367 163.939C619.51 179.107 625.57 197.565 640.827 206.373C657.041 215.734 677.498 210.654 686.52 195.027C689.256 190.289 690.624 185.126 690.753 179.97Z" fill="#D9E3E8"/>
<path d="M612.057 195.137C620.924 200.257 632.113 197.478 637.048 188.931C641.983 180.384 638.794 169.305 629.927 164.185C621.059 159.065 609.87 161.844 604.935 170.391C600 178.938 603.189 190.017 612.057 195.137Z" fill="#F5FBFF"/>
<path d="M639.092 177.137C638.773 177.959 638.389 178.767 637.935 179.554C633.001 188.101 621.812 190.879 612.944 185.759C607.902 182.849 604.7 178.011 603.779 172.808C600.636 180.927 604.005 190.488 612.056 195.137C620.924 200.257 632.113 197.479 637.048 188.931C639.177 185.244 639.791 181.085 639.092 177.137Z" fill="#D9E3E8"/>
<path d="M1317.83 174.373C1334.04 183.734 1354.5 178.654 1363.52 163.027C1372.54 147.4 1366.71 127.143 1350.5 117.783C1334.29 108.422 1313.83 113.502 1304.81 129.129C1295.78 144.756 1301.61 165.013 1317.83 174.373Z" fill="#F5FBFF"/>
<path d="M1367.75 147.97C1367.32 148.921 1366.85 149.859 1366.31 150.781C1357.29 166.408 1336.83 171.488 1320.62 162.127C1309.32 155.604 1303.07 143.79 1303.37 131.939C1296.51 147.108 1302.57 165.565 1317.83 174.373C1334.04 183.734 1354.5 178.654 1363.52 163.027C1366.26 158.29 1367.62 153.126 1367.75 147.97Z" fill="#D9E3E8"/>
<path d="M1289.06 163.137C1297.92 168.257 1309.11 165.478 1314.05 156.931C1318.98 148.384 1315.79 137.305 1306.93 132.185C1298.06 127.065 1286.87 129.844 1281.94 138.391C1277 146.938 1280.19 158.017 1289.06 163.137Z" fill="#F5FBFF"/>
<path d="M1316.09 145.137C1315.77 145.959 1315.39 146.767 1314.94 147.554C1310 156.101 1298.81 158.879 1289.94 153.759C1284.9 150.849 1281.7 146.011 1280.78 140.808C1277.64 148.927 1281 158.488 1289.06 163.137C1297.92 168.257 1309.11 165.479 1314.05 156.931C1316.18 153.244 1316.79 149.085 1316.09 145.137Z" fill="#D9E3E8"/>
<path d="M558.828 350.373C575.041 359.734 595.498 354.654 604.521 339.027C613.543 323.4 607.714 303.143 591.5 293.783C575.287 284.422 554.83 289.502 545.807 305.129C536.785 320.756 542.614 341.013 558.828 350.373Z" fill="#F5FBFF"/>
<path d="M608.753 323.97C608.324 324.921 607.845 325.859 607.313 326.78C598.291 342.408 577.833 347.487 561.62 338.127C550.322 331.604 544.069 319.79 544.367 307.939C537.51 323.107 543.57 341.565 558.827 350.373C575.041 359.734 595.498 354.654 604.52 339.027C607.256 334.289 608.624 329.126 608.753 323.97Z" fill="#D9E3E8"/>
<path d="M530.057 339.137C538.924 344.257 550.113 341.478 555.048 332.931C559.983 324.384 556.794 313.305 547.927 308.185C539.059 303.065 527.87 305.844 522.935 314.391C518 322.938 521.189 334.017 530.057 339.137Z" fill="#F5FBFF"/>
<path d="M557.092 321.137C556.773 321.959 556.389 322.767 555.935 323.554C551.001 332.101 539.812 334.879 530.944 329.759C525.902 326.849 522.7 322.011 521.779 316.808C518.636 324.927 522.005 334.488 530.056 339.137C538.924 344.257 550.113 341.479 555.048 332.931C557.177 329.244 557.791 325.085 557.092 321.137Z" fill="#D9E3E8"/>
<path d="M1433.39 303.188C1418.64 312.803 1398.7 308.343 1388.84 293.226C1378.99 278.11 1382.96 258.062 1397.7 248.447C1412.45 238.833 1432.4 243.293 1442.25 258.409C1452.11 273.526 1448.14 293.574 1433.39 303.188Z" fill="#F5FBFF"/>
<path d="M1383.61 278.546C1384.09 279.469 1384.63 280.378 1385.21 281.269C1395.06 296.386 1415.01 300.846 1429.75 291.231C1440.03 284.532 1445.07 272.766 1443.85 261.132C1451.6 275.854 1447.27 294.141 1433.39 303.188C1418.64 312.803 1398.7 308.343 1388.84 293.226C1385.86 288.644 1384.14 283.608 1383.61 278.546Z" fill="#D9E3E8"/>
<path d="M1459.99 291.407C1451.92 296.665 1441.01 294.226 1435.62 285.958C1430.23 277.69 1432.4 266.725 1440.47 261.467C1448.53 256.208 1459.44 258.648 1464.83 266.915C1470.22 275.183 1468.05 286.148 1459.99 291.407Z" fill="#F5FBFF"/>
<path d="M1432.74 274.426C1433.11 275.225 1433.54 276.009 1434.03 276.77C1439.42 285.037 1450.33 287.477 1458.4 282.218C1462.98 279.229 1465.66 274.394 1466.13 269.259C1469.77 277.152 1467.31 286.632 1459.99 291.407C1451.92 296.665 1441.01 294.226 1435.62 285.958C1433.3 282.391 1432.38 278.322 1432.74 274.426Z" fill="#D9E3E8"/>
<path d="M1158.85 179.288C1144.1 188.902 1124.72 185.315 1115.57 171.276C1106.42 157.237 1110.96 138.062 1125.7 128.447C1140.45 118.833 1159.83 122.42 1168.98 136.459C1178.13 150.499 1173.6 169.674 1158.85 179.288Z" fill="#F5FBFF"/>
<path d="M1110.93 157.501C1111.37 158.361 1111.86 159.208 1112.4 160.036C1121.55 174.075 1140.93 177.662 1155.68 168.047C1165.96 161.348 1171.27 150.006 1170.46 138.994C1177.56 152.727 1172.73 170.241 1158.85 179.288C1144.1 188.902 1124.72 185.315 1115.57 171.276C1112.8 167.02 1111.28 162.292 1110.93 157.501Z" fill="#D9E3E8"/>
<path d="M1185.26 167.229C1177.2 172.487 1166.6 170.525 1161.59 162.847C1156.59 155.168 1159.07 144.68 1167.14 139.422C1175.2 134.163 1185.8 136.125 1190.8 143.804C1195.81 151.482 1193.33 161.97 1185.26 167.229Z" fill="#F5FBFF"/>
<path d="M1159.15 151.985C1159.48 152.733 1159.88 153.463 1160.34 154.169C1165.34 161.848 1175.94 163.81 1184.01 158.552C1188.59 155.562 1191.37 150.881 1192 145.988C1195.31 153.368 1192.59 162.454 1185.26 167.229C1177.2 172.487 1166.6 170.525 1161.59 162.847C1159.43 159.534 1158.67 155.698 1159.15 151.985Z" fill="#D9E3E8"/>
<path d="M1403.86 193.499C1417.37 201.296 1434.64 196.669 1442.43 183.163C1450.23 169.658 1445.61 152.388 1432.1 144.591C1418.59 136.793 1401.32 141.421 1393.53 154.926C1385.73 168.432 1390.36 185.702 1403.86 193.499Z" fill="#F5FBFF"/>
<path d="M1445.74 163.885C1445.16 165.54 1444.43 167.167 1443.52 168.741C1435.72 182.246 1418.45 186.874 1404.94 179.076C1397.51 174.781 1392.77 167.612 1391.31 159.782C1386.94 172.33 1391.93 186.61 1403.86 193.499C1417.37 201.296 1434.64 196.669 1442.43 183.163C1445.94 177.096 1446.93 170.271 1445.74 163.885Z" fill="#D9E3E8"/>
<path d="M1344.36 206.217C1369.05 220.473 1400.63 212.013 1414.88 187.32C1429.14 162.627 1420.68 131.052 1395.99 116.796C1371.29 102.539 1339.72 111 1325.46 135.693C1311.21 160.386 1319.67 191.96 1344.36 206.217Z" fill="#F5FBFF"/>
<path d="M1421.76 163.639C1421.08 165.138 1420.32 166.618 1419.48 168.074C1405.22 192.767 1373.65 201.228 1348.96 186.971C1331.75 177.037 1322.43 158.693 1323.18 140.128C1312.26 164.05 1321.12 192.801 1344.36 206.217C1369.05 220.473 1400.63 212.013 1414.88 187.32C1419.21 179.834 1421.44 171.715 1421.76 163.639Z" fill="#D9E3E8"/>
<path d="M1301.78 197.261C1315.28 205.058 1332.55 200.431 1340.35 186.925C1348.15 173.419 1343.52 156.15 1330.02 148.352C1316.51 140.555 1299.24 145.182 1291.44 158.688C1283.65 172.194 1288.27 189.463 1301.78 197.261Z" fill="#F5FBFF"/>
<path d="M1343.79 168.406C1343.28 169.702 1342.67 170.977 1341.95 172.219C1334.15 185.725 1316.88 190.352 1303.38 182.555C1295.7 178.121 1290.89 170.625 1289.61 162.501C1284.57 175.291 1289.52 190.181 1301.78 197.261C1315.29 205.058 1332.55 200.431 1340.35 186.925C1343.72 181.098 1344.76 174.571 1343.79 168.406Z" fill="#D9E3E8"/>
<path d="M640.09 350.44C650.772 356.607 664.433 352.947 670.6 342.264C676.768 331.582 673.108 317.921 662.425 311.754C651.742 305.586 638.082 309.246 631.914 319.929C625.747 330.612 629.407 344.272 640.09 350.44Z" fill="#F5FBFF"/>
<path d="M673.211 327.015C672.755 328.325 672.175 329.611 671.456 330.856C665.288 341.539 651.628 345.199 640.945 339.031C635.062 335.634 631.314 329.963 630.16 323.77C626.701 333.695 630.652 344.991 640.09 350.44C650.773 356.607 664.433 352.947 670.6 342.264C673.371 337.465 674.153 332.067 673.211 327.015Z" fill="#D9E3E8"/>
<path d="M593.024 360.499C612.556 371.776 637.531 365.084 648.808 345.552C660.085 326.02 653.393 301.045 633.861 289.768C614.329 278.491 589.354 285.184 578.077 304.715C566.8 324.247 573.492 349.223 593.024 360.499Z" fill="#F5FBFF"/>
<path d="M654.25 326.82C653.709 328.006 653.108 329.177 652.443 330.329C641.167 349.861 616.191 356.553 596.66 345.276C583.049 337.418 575.676 322.908 576.271 308.224C567.636 327.146 574.644 349.887 593.024 360.499C612.556 371.776 637.531 365.084 648.808 345.552C652.227 339.631 653.991 333.209 654.25 326.82Z" fill="#D9E3E8"/>
<path d="M559.343 353.415C570.026 359.583 583.686 355.923 589.854 345.24C596.021 334.557 592.361 320.897 581.678 314.729C570.996 308.561 557.336 312.222 551.168 322.904C545 333.587 548.66 347.247 559.343 353.415Z" fill="#F5FBFF"/>
<path d="M592.57 330.591C592.167 331.616 591.684 332.625 591.116 333.607C584.949 344.29 571.289 347.95 560.606 341.783C554.532 338.276 550.732 332.347 549.714 325.921C545.734 336.038 549.643 347.815 559.343 353.415C570.026 359.583 583.686 355.923 589.854 345.24C592.515 340.631 593.342 335.468 592.57 330.591Z" fill="#D9E3E8"/>
<path d="M1197.66 329.557C1206.06 334.404 1216.79 331.528 1221.64 323.132C1226.49 314.736 1223.61 304.001 1215.21 299.154C1206.82 294.307 1196.08 297.183 1191.24 305.579C1186.39 313.974 1189.26 324.71 1197.66 329.557Z" fill="#F5FBFF"/>
<path d="M1223.69 311.148C1223.33 312.177 1222.88 313.188 1222.31 314.166C1217.46 322.562 1206.73 325.438 1198.33 320.591C1193.71 317.921 1190.76 313.464 1189.86 308.597C1187.14 316.397 1190.24 325.274 1197.66 329.557C1206.06 334.404 1216.79 331.527 1221.64 323.132C1223.82 319.36 1224.43 315.118 1223.69 311.148Z" fill="#D9E3E8"/>
<path d="M1160.67 337.463C1176.02 346.325 1195.65 341.066 1204.51 325.716C1213.37 310.366 1208.11 290.738 1192.76 281.875C1177.41 273.013 1157.79 278.272 1148.92 293.622C1140.06 308.972 1145.32 328.6 1160.67 337.463Z" fill="#F5FBFF"/>
<path d="M1208.79 310.995C1208.36 311.926 1207.89 312.847 1207.37 313.752C1198.51 329.102 1178.88 334.361 1163.53 325.499C1152.83 319.323 1147.04 307.92 1147.5 296.38C1140.72 311.25 1146.23 329.123 1160.67 337.463C1176.02 346.325 1195.65 341.066 1204.51 325.716C1207.2 321.062 1208.59 316.015 1208.79 310.995Z" fill="#D9E3E8"/>
<path d="M1134.2 331.895C1142.6 336.742 1153.33 333.866 1158.18 325.47C1163.03 317.075 1160.15 306.339 1151.75 301.492C1143.36 296.645 1132.62 299.521 1127.78 307.917C1122.93 316.313 1125.81 327.048 1134.2 331.895Z" fill="#F5FBFF"/>
<path d="M1160.31 313.958C1160 314.764 1159.62 315.556 1159.17 316.328C1154.33 324.724 1143.59 327.601 1135.19 322.753C1130.42 319.998 1127.43 315.338 1126.63 310.287C1123.51 318.238 1126.58 327.494 1134.2 331.895C1142.6 336.742 1153.33 333.866 1158.18 325.47C1160.27 321.848 1160.92 317.791 1160.31 313.958Z" fill="#D9E3E8"/>
<path d="M885.537 283.744C899.043 291.542 916.312 286.914 924.11 273.409C931.907 259.903 927.28 242.633 913.774 234.836C900.269 227.038 882.999 231.666 875.202 245.171C867.404 258.677 872.032 275.947 885.537 283.744Z" fill="#F5FBFF"/>
<path d="M927.41 254.13C926.833 255.785 926.101 257.412 925.192 258.986C917.394 272.491 900.125 277.119 886.619 269.321C879.18 265.027 874.442 257.857 872.983 250.027C868.61 262.575 873.605 276.855 885.537 283.744C899.043 291.542 916.312 286.914 924.11 273.408C927.613 267.341 928.601 260.516 927.41 254.13Z" fill="#D9E3E8"/>
<path d="M826.035 296.462C850.728 310.719 882.303 302.258 896.559 277.565C910.816 252.872 902.355 221.297 877.662 207.041C852.969 192.784 821.394 201.245 807.138 225.938C792.881 250.631 801.342 282.206 826.035 296.462Z" fill="#F5FBFF"/>
<path d="M903.439 253.884C902.755 255.383 901.996 256.863 901.155 258.32C886.899 283.012 855.324 291.473 830.631 277.216C813.424 267.282 804.103 248.938 804.854 230.373C793.939 254.295 802.798 283.046 826.035 296.462C850.728 310.718 882.303 302.258 896.559 277.565C900.881 270.079 903.112 261.96 903.439 253.884Z" fill="#D9E3E8"/>
<path d="M783.454 287.506C796.96 295.303 814.229 290.676 822.027 277.17C829.824 263.665 825.197 246.395 811.691 238.597C798.186 230.8 780.916 235.427 773.119 248.933C765.321 262.439 769.949 279.708 783.454 287.506Z" fill="#F5FBFF"/>
<path d="M825.461 258.651C824.951 259.947 824.341 261.222 823.624 262.464C815.826 275.97 798.556 280.597 785.051 272.8C777.372 268.366 772.569 260.871 771.281 252.746C766.25 265.537 771.191 280.426 783.454 287.506C796.96 295.303 814.23 290.676 822.027 277.17C825.391 271.343 826.438 264.816 825.461 258.651Z" fill="#D9E3E8"/>
<path d="M972.537 208.744C986.043 216.542 1003.31 211.914 1011.11 198.409C1018.91 184.903 1014.28 167.633 1000.77 159.836C987.269 152.038 969.999 156.666 962.202 170.171C954.404 183.677 959.032 200.947 972.537 208.744Z" fill="#F5FBFF"/>
<path d="M1014.41 179.13C1013.83 180.785 1013.1 182.412 1012.19 183.986C1004.39 197.491 987.125 202.119 973.619 194.321C966.18 190.027 961.442 182.857 959.983 175.027C955.61 187.575 960.605 201.855 972.537 208.744C986.043 216.542 1003.31 211.914 1011.11 198.408C1014.61 192.341 1015.6 185.516 1014.41 179.13Z" fill="#D9E3E8"/>
<path d="M913.035 221.462C937.728 235.719 969.303 227.258 983.559 202.565C997.816 177.872 989.356 146.297 964.663 132.041C939.97 117.784 908.395 126.245 894.138 150.938C879.882 175.631 888.342 207.206 913.035 221.462Z" fill="#F5FBFF"/>
<path d="M990.439 178.884C989.755 180.383 988.996 181.863 988.155 183.32C973.899 208.012 942.324 216.473 917.631 202.216C900.424 192.282 891.103 173.938 891.855 155.373C880.939 179.295 889.798 208.046 913.035 221.462C937.728 235.718 969.303 227.258 983.559 202.565C987.882 195.079 990.112 186.96 990.439 178.884Z" fill="#D9E3E8"/>
<path d="M870.454 212.506C883.96 220.303 901.229 215.676 909.027 202.17C916.824 188.665 912.197 171.395 898.691 163.597C885.186 155.8 867.916 160.427 860.119 173.933C852.321 187.439 856.949 204.708 870.454 212.506Z" fill="#F5FBFF"/>
<path d="M912.461 183.651C911.951 184.947 911.341 186.222 910.624 187.464C902.826 200.97 885.556 205.597 872.051 197.8C864.372 193.366 859.569 185.871 858.281 177.746C853.25 190.537 858.191 205.426 870.454 212.506C883.96 220.303 901.23 215.676 909.027 202.17C912.391 196.343 913.438 189.816 912.461 183.651Z" fill="#D9E3E8"/>
<defs>
<linearGradient id="paint0_linear_50_5317" x1="1668.93" y1="914.499" x2="387.579" y2="-362.205" gradientUnits="userSpaceOnUse">
<stop stop-color="#1C97CF"/>
<stop offset="0.1112" stop-color="#24A1D8"/>
<stop offset="0.404" stop-color="#35B4EC"/>
<stop offset="0.6996" stop-color="#3FC0F7"/>
<stop offset="1" stop-color="#42C4FB"/>
</linearGradient>
</defs>
</svg>
