<svg width="2000" height="881" viewBox="0 0 2000 881" fill="none" xmlns="http://www.w3.org/2000/svg">
<rect width="2000" height="881" fill="#C5E8F3"/>
<path d="M222.474 811.723L174.573 788.526L163.668 788.885L170.344 797.513L217.697 821.395C220.454 822.782 223.792 821.584 225.042 818.776C226.223 816.105 225.076 812.99 222.474 811.723Z" fill="#D1DEE5"/>
<path d="M225.504 816.568C225.504 817.304 225.35 818.04 225.042 818.759C223.792 821.567 220.437 822.765 217.697 821.378L170.344 797.496L163.668 788.868L168.718 788.714L171.902 792.84L219.255 816.722C221.378 817.783 223.843 817.321 225.453 815.763C225.487 816.02 225.504 816.294 225.504 816.568Z" fill="#D1DEE5"/>
<path d="M168.307 788.714C168.307 788.714 169.095 791.556 166.458 792.497L163.462 789.45C162.983 788.954 163.377 788.132 164.079 788.2L168.307 788.714Z" fill="#D1DEE5"/>
<path d="M158.45 769.798C160.609 763.093 152.531 754.493 140.408 750.59C128.285 746.686 116.707 748.957 114.548 755.663C112.389 762.368 120.466 770.968 132.589 774.871C144.713 778.775 156.291 776.504 158.45 769.798Z" fill="#D1DEE5"/>
<path d="M286.108 733.674L161.904 764.421C159.525 765.003 157.025 764.284 155.33 762.521L149.321 756.238C145.692 752.455 147.524 746.172 152.608 744.905L276.812 714.158C279.191 713.576 281.691 714.295 283.386 716.058L289.395 722.341C293.007 726.142 291.192 732.425 286.108 733.674Z" fill="#D1DEE5"/>
<path d="M187.943 739.29L255.018 722.889L239.302 716.229L171.954 732.63L187.943 739.29Z" fill="#E1E1E0"/>
<path d="M200.612 733.092L195.408 729.326L195.682 713.97L200.612 712.823V733.092Z" fill="#9A9A99"/>
<path d="M356.007 590.485V617.517C356.007 618.51 355.716 619.435 355.202 620.222L320.843 594.731C321.494 593.652 322.538 592.848 323.822 592.505L349.793 585.692C352.943 584.87 356.007 587.232 356.007 590.485Z" fill="#DD9F41"/>
<path d="M355.203 620.222C354.552 621.232 353.525 622.003 352.31 622.311L326.339 629.142C323.206 629.963 320.125 627.601 320.125 624.348V597.299C320.125 596.374 320.381 595.484 320.844 594.731L355.203 620.222Z" fill="#BC8836"/>
<path d="M284.84 605.807L146.325 632.343C145.384 632.565 144.562 633.011 143.877 633.627L134.752 628.44C135.933 627.002 137.56 625.94 139.477 625.495L269.672 595.056C270.819 594.782 272.206 594.782 273.661 595.039C277.308 595.707 280.441 598.052 282.255 601.288L284.84 605.807Z" fill="#BBB9B8"/>
<path d="M145.349 725.303L138.964 724.122C134.444 722.256 132.595 717.171 132.612 713.353L132.835 633.867C132.835 631.829 133.554 629.929 134.787 628.423L143.911 633.61C142.833 634.603 142.165 636.041 142.165 637.599L145.349 725.303Z" fill="#9A9A99"/>
<path d="M235.074 704.776L234.714 715.151L234.68 716.281L234.389 725.303L200.612 733.092V712.634L235.074 704.776Z" fill="#BBB9B8"/>
<path d="M255.018 722.889V729.223L187.892 745.846L187.943 739.29L255.018 722.889Z" fill="#BBB9B8"/>
<path d="M171.954 732.63V738.16L187.892 745.846L187.943 739.289L171.954 732.63Z" fill="#9A9A99"/>
<path d="M290.661 681.784L335.309 671.513C338.305 670.828 340.428 668.157 340.428 665.093V634.808" stroke="#A5A2A0" stroke-width="12.7425" stroke-miterlimit="10" stroke-linecap="round" stroke-linejoin="round" stroke-dasharray="38.05 38.05"/>
<path d="M124.429 721.947L75.1077 733.298L75.3131 698.956" stroke="#A5A2A0" stroke-width="12.7425" stroke-miterlimit="10" stroke-linecap="round" stroke-linejoin="round" stroke-dasharray="38.05 38.05"/>
<path d="M323.103 599.439V625.546C323.103 628.679 326.065 630.973 329.095 630.169L354.158 623.578C356.264 623.03 357.719 621.129 357.719 618.955V592.865C357.719 589.732 354.757 587.438 351.727 588.243L326.664 594.817C324.575 595.364 323.103 597.265 323.103 599.439Z" fill="#FEC64A"/>
<path d="M89.2312 646.672V673.704C89.2312 674.697 88.9402 675.621 88.4266 676.409L54.0674 650.918C54.7179 649.839 55.7622 649.034 57.0462 648.692L83.0168 641.878C86.1497 641.057 89.2312 643.419 89.2312 646.672Z" fill="#1A649B"/>
<path d="M88.4266 676.409C87.7761 677.419 86.7489 678.189 85.5334 678.498L59.5628 685.328C56.4299 686.15 53.3484 683.788 53.3484 680.535V653.486C53.3484 652.561 53.6052 651.671 54.0674 650.918L88.4266 676.409Z" fill="#0B4B77"/>
<path d="M56.3271 655.626V681.733C56.3271 684.866 59.2889 687.16 62.319 686.355L87.3822 679.764C89.488 679.217 90.9431 677.316 90.9431 675.142V649.052C90.9431 645.919 87.9814 643.625 84.9513 644.429L59.888 651.003C57.7994 651.551 56.3271 653.451 56.3271 655.626Z" fill="#207FC3"/>
<path d="M148.466 564.463V591.495C148.466 592.488 148.175 593.413 147.661 594.2L113.302 568.692C113.952 567.613 114.997 566.809 116.281 566.466L142.251 559.653C145.401 558.831 148.466 561.211 148.466 564.463Z" fill="#8FB133"/>
<path d="M147.661 594.2C147.01 595.21 145.983 595.981 144.768 596.289L118.797 603.12C115.664 603.941 112.583 601.579 112.583 598.326V571.277C112.583 570.352 112.839 569.462 113.302 568.709L147.661 594.2Z" fill="#779633"/>
<path d="M115.562 573.4V599.507C115.562 602.64 118.523 604.934 121.553 604.13L146.634 597.539C148.739 596.991 150.195 595.09 150.195 592.916V566.826C150.195 563.693 147.233 561.399 144.203 562.204L119.14 568.777C117.034 569.325 115.562 571.226 115.562 573.4Z" fill="#A1C635"/>
<path d="M133.691 593.105C132.031 592.831 130.421 592.129 129.035 590.982L123.265 586.171C121.245 584.493 120.013 582.148 119.79 579.529C119.567 576.926 120.372 574.393 122.05 572.39C123.026 571.243 124.755 571.089 125.902 572.064C127.049 573.04 127.203 574.769 126.227 575.916C125.491 576.789 125.131 577.902 125.234 579.032C125.337 580.179 125.868 581.206 126.758 581.925L132.544 586.736C134.273 588.174 136.841 588.02 138.365 586.376L138.759 585.966C139.786 584.87 141.532 584.801 142.628 585.846C143.723 586.873 143.792 588.619 142.748 589.715L142.354 590.126C140.077 592.591 136.807 593.601 133.691 593.105Z" fill="#779633"/>
<path d="M136.225 593.105C134.564 592.831 132.955 592.129 131.568 590.982L125.782 586.171C123.762 584.493 122.529 582.148 122.307 579.529C122.084 576.926 122.889 574.393 124.566 572.39C125.542 571.243 127.271 571.089 128.418 572.064C129.565 573.04 129.719 574.769 128.744 575.916C128.007 576.789 127.648 577.902 127.751 579.032C127.853 580.179 128.384 581.206 129.274 581.925L135.061 586.736C136.79 588.174 139.358 588.02 140.881 586.376L141.275 585.966C142.302 584.87 144.049 584.801 145.144 585.846C146.24 586.873 146.308 588.619 145.264 589.715L144.87 590.126C142.611 592.591 139.324 593.601 136.225 593.105Z" fill="white"/>
<path d="M280.081 537.962V564.994C280.081 565.987 279.79 566.911 279.277 567.699L244.917 542.208C245.568 541.129 246.612 540.325 247.896 539.982L273.867 533.169C277.017 532.33 280.081 534.709 280.081 537.962Z" fill="#C83D20"/>
<path d="M279.277 567.699C278.626 568.709 277.599 569.479 276.383 569.788L250.413 576.618C247.28 577.44 244.198 575.078 244.198 571.825V544.776C244.198 543.851 244.455 542.961 244.918 542.208L279.277 567.699Z" fill="#A5331D"/>
<path d="M247.177 546.899V573.006C247.177 576.139 250.139 578.433 253.169 577.628L278.232 571.037C280.338 570.49 281.793 568.589 281.793 566.415V540.325C281.793 537.192 278.832 534.898 275.801 535.702L250.738 542.276C248.65 542.824 247.177 544.724 247.177 546.899Z" fill="#F0492A"/>
<path d="M70.1428 641.707V596.015L107.036 587.558" stroke="#A5A2A0" stroke-width="12.7425" stroke-miterlimit="10" stroke-linecap="round" stroke-linejoin="round" stroke-dasharray="38.05 38.05"/>
<path d="M288.127 551.812L339.024 540.153V583.928" stroke="#A5A2A0" stroke-width="12.7425" stroke-miterlimit="10" stroke-linecap="round" stroke-linejoin="round" stroke-dasharray="38.05 38.05"/>
<path d="M157.71 579.135L236.597 560.697" stroke="#A5A2A0" stroke-width="12.7425" stroke-miterlimit="10" stroke-linecap="round" stroke-linejoin="round" stroke-dasharray="38.05 38.05"/>
<path d="M189.638 767.76C189.296 767.76 188.953 767.657 188.645 767.451C186.317 765.808 184.554 765.311 184.536 765.311C183.629 765.055 183.081 764.113 183.338 763.206C183.578 762.298 184.519 761.75 185.427 761.99C185.512 762.007 187.755 762.624 190.614 764.644C191.384 765.192 191.573 766.253 191.025 767.04C190.7 767.503 190.169 767.76 189.638 767.76Z" fill="white"/>
<path d="M158.497 763.462C158.497 764.986 157.556 766.339 156.135 766.886L147.798 770.054C142.473 772.074 136.516 771.577 131.602 768.701L111.983 757.214C111.144 756.717 110.648 755.827 110.648 754.868C110.648 754.68 110.665 754.475 110.716 754.286C111.367 751.325 113.438 748.894 116.263 747.781L117.496 747.284L118.746 746.788L119.516 746.48C119.567 746.463 119.636 746.428 119.687 746.411C120.098 746.257 120.509 746.103 120.92 745.983C125.936 744.408 131.397 744.819 136.139 747.165L153.772 755.861C155.21 756.58 156.392 757.676 157.213 758.994C158.035 760.312 158.497 761.853 158.497 763.462Z" fill="#BBB9B8"/>
<path d="M158.497 763.463C158.497 764.986 157.556 766.339 156.135 766.887L147.798 770.054C142.473 772.074 136.516 771.577 131.602 768.701L111.983 757.214C111.144 756.717 110.648 755.827 110.648 754.869C110.648 754.68 110.665 754.475 110.716 754.286C111.076 752.677 111.846 751.222 112.942 750.041C113.01 750.092 113.079 750.143 113.165 750.195L132.784 761.682C137.697 764.558 143.655 765.055 148.979 763.035L157.316 759.867C157.436 759.816 157.539 759.782 157.641 759.731C158.189 760.86 158.497 762.144 158.497 763.463Z" fill="#9A9A99"/>
<path d="M138.502 757.265C138.433 757.334 138.348 757.368 138.279 757.368C138.211 757.368 138.125 757.351 138.074 757.282C129.274 749.253 119.002 746.874 118.9 746.856C118.848 746.839 118.814 746.822 118.78 746.805L119.55 746.497C119.602 746.48 119.67 746.446 119.721 746.428C122.204 747.113 130.901 749.887 138.502 756.837C138.604 756.94 138.604 757.128 138.502 757.265Z" fill="#002B42"/>
<path d="M130.849 751.65C130.524 752.129 129.993 752.369 129.445 752.369C129.103 752.369 128.76 752.266 128.452 752.061C126.124 750.417 124.36 749.921 124.343 749.921C123.436 749.664 122.888 748.722 123.145 747.815C123.196 747.592 123.299 747.404 123.436 747.233C123.607 747.764 124.035 748.192 124.617 748.363C124.634 748.363 126.398 748.876 128.726 750.503C129.017 750.708 129.377 750.811 129.719 750.811C130.233 750.811 130.746 750.571 131.088 750.126C131.243 750.623 131.174 751.188 130.849 751.65Z" fill="#C0CACE"/>
<path d="M131.071 750.143C130.746 750.589 130.215 750.828 129.702 750.828C129.359 750.828 129.017 750.725 128.709 750.52C126.381 748.877 124.617 748.38 124.6 748.38C124.018 748.226 123.59 747.781 123.419 747.25C123.83 746.719 124.532 746.446 125.217 746.634C125.319 746.651 127.545 747.267 130.404 749.287C130.746 749.493 130.969 749.801 131.071 750.143Z" fill="#E1E1E0"/>
<path d="M344.418 767.64C358.988 767.64 370.799 761.661 370.799 754.286C370.799 746.912 358.988 740.933 344.418 740.933C329.848 740.933 318.036 746.912 318.036 754.286C318.036 761.661 329.848 767.64 344.418 767.64Z" fill="#D1DEE5"/>
<path d="M340.891 758.977H326.082C319.337 758.977 313.876 753.516 313.876 746.771V710.357H353.097V746.771C353.097 753.516 347.619 758.977 340.891 758.977Z" fill="#EE433C"/>
<path d="M339.607 758.977H326.082C319.337 758.977 313.876 753.516 313.876 746.771V710.357H327.4V746.771C327.4 753.516 332.861 758.977 339.607 758.977Z" fill="#DA3D36"/>
<path d="M353.097 710.357C353.097 711.265 352.6 712.138 351.71 712.925C348.834 715.493 341.747 717.308 333.478 717.308C325.209 717.308 318.121 715.493 315.245 712.925C314.355 712.121 313.859 711.265 313.859 710.357C313.859 706.523 322.641 703.407 333.478 703.407C344.315 703.407 353.097 706.523 353.097 710.357Z" fill="#CB3832"/>
<path d="M351.71 712.925C348.834 715.493 341.747 717.308 333.478 717.308C325.209 717.308 318.121 715.493 315.245 712.925C318.121 710.357 325.209 708.542 333.478 708.542C341.747 708.542 348.834 710.357 351.71 712.925Z" fill="#4A311A"/>
<path d="M361.982 722.512V738.879C361.982 743.775 357.993 747.764 353.097 747.764V742.782C355.237 742.782 357 741.036 357 738.879V722.512C357 720.372 355.254 718.609 353.097 718.609V713.627C357.993 713.627 361.982 717.616 361.982 722.512Z" fill="#EE433C"/>
<path d="M359.448 722.512V738.879C359.448 742.902 356.761 746.309 353.08 747.404V742.782C355.22 742.782 356.983 741.036 356.983 738.879V722.512C356.983 720.372 355.237 718.609 353.08 718.609V713.987C356.761 715.082 359.448 718.489 359.448 722.512Z" fill="#DA3D36"/>
<path d="M338.836 756.306H341.421C346.146 756.306 349.964 752.472 349.964 747.764V723.574C349.964 722.855 349.382 722.272 348.663 722.272C347.944 722.272 347.362 722.855 347.362 723.574V747.764C347.396 752.472 343.561 756.306 338.836 756.306Z" fill="#F94E4E"/>
<path d="M348.235 720.8C349.199 720.8 349.981 720.018 349.981 719.054C349.981 718.09 349.199 717.308 348.235 717.308C347.271 717.308 346.489 718.09 346.489 719.054C346.489 720.018 347.271 720.8 348.235 720.8Z" fill="#F94E4E"/>
<path d="M332.365 780.12C332.725 779.093 332.382 777.86 331.235 777.261L283.882 752.831C281.52 751.616 278.798 751.308 276.23 751.975L192.566 773.632C191.419 773.923 190.82 774.916 190.82 775.926V775.977C190.82 775.977 190.82 775.977 190.82 775.994V779.897C190.82 782.072 192.035 784.04 193.952 785.033L237.385 807.82C240.261 809.326 243.582 809.737 246.732 808.984L328.821 789.176C330.961 788.663 332.485 786.762 332.485 784.554V780.086L332.365 780.12Z" fill="#D1DEE5"/>
<path d="M238.686 795.904V795.956L189.142 770.807V774.659C189.142 776.765 190.323 778.682 192.189 779.658L234.372 801.794C237.163 803.249 240.381 803.66 243.445 802.923L323.155 783.698C325.243 783.202 326.698 781.353 326.698 779.213V774.881L238.686 795.904Z" fill="#002237"/>
<path d="M324.97 776.336L242.555 796.811C240.09 797.428 237.488 797.12 235.228 795.955L190.375 772.81C188.526 771.851 188.834 769.129 190.854 768.598L272.07 747.558C274.569 746.908 277.206 747.216 279.5 748.397L325.466 772.125C327.315 773.084 327.007 775.84 324.97 776.336Z" fill="#002B42"/>
<path d="M203.608 773.597L236.871 790.495C239.713 791.933 242.966 792.326 246.065 791.573L313.242 775.464C315.005 775.036 315.279 772.656 313.67 771.834L280.595 755.194C277.787 753.773 274.569 753.396 271.504 754.115L204.036 769.968C202.29 770.379 201.998 772.776 203.608 773.597Z" fill="#FEFEFE"/>
<path d="M278.465 773.522C278.677 770.38 269.979 767.235 259.036 766.495C248.094 765.756 239.051 767.703 238.839 770.844C238.627 773.986 247.325 777.132 258.268 777.871C269.21 778.61 278.253 776.663 278.465 773.522Z" stroke="#002B42" stroke-width="7.3979" stroke-miterlimit="10" stroke-linecap="round" stroke-linejoin="round" stroke-dasharray="22.09 22.09"/>
<path d="M262.402 776.492C270.663 769.277 275.681 761.506 273.609 759.135C271.538 756.763 263.163 760.69 254.902 767.904C246.641 775.119 241.623 782.89 243.694 785.261C245.765 787.633 254.141 783.706 262.402 776.492Z" stroke="#002B42" stroke-width="7.3979" stroke-miterlimit="10" stroke-linecap="round" stroke-linejoin="round" stroke-dasharray="22.09 22.09"/>
<path d="M216.311 805.081L168.41 781.866L157.505 782.226L164.181 790.854L211.534 814.736C214.291 816.123 217.629 814.924 218.879 812.117C220.077 809.463 218.93 806.347 216.311 805.081Z" fill="#002B42"/>
<path d="M219.358 809.925C219.358 810.661 219.204 811.398 218.896 812.117C217.646 814.924 214.29 816.123 211.551 814.736L164.198 790.854L157.521 782.226L162.572 782.072L165.756 786.197L213.109 810.079C215.232 811.141 217.697 810.679 219.306 809.121C219.341 809.377 219.358 809.651 219.358 809.925Z" fill="#002237"/>
<path d="M162.161 782.072C162.161 782.072 162.949 784.913 160.312 785.855L157.316 782.808C156.837 782.311 157.231 781.489 157.933 781.558L162.161 782.072Z" fill="#10405B"/>
<path d="M142.131 637.564V721.588C142.131 723.985 144.357 725.748 146.685 725.217L281.314 694.128C283.368 693.649 284.841 691.817 284.841 689.711V607.143C284.841 603.702 281.639 601.151 278.284 601.921L146.291 632.36C143.86 632.908 142.131 635.082 142.131 637.564Z" fill="#002B42"/>
<path d="M151.102 638.848V706.317L275.853 677.693V610.276L151.102 638.848Z" fill="#FEFEFE"/>
<path d="M284.841 683.308V690.173C284.841 692.022 283.574 693.614 281.776 694.025L146.719 725.2C144.374 725.748 142.131 723.95 142.131 721.553V716.127L284.841 683.308Z" fill="#E1E1E0"/>
<path d="M251.339 664.681C252.448 659.377 238.355 651.945 219.863 648.08C201.37 644.214 185.481 645.38 184.372 650.684C183.264 655.987 197.356 663.42 215.849 667.285C234.341 671.15 250.231 669.984 251.339 664.681Z" stroke="#002B42" stroke-width="12.7425" stroke-miterlimit="10" stroke-linecap="round" stroke-linejoin="round" stroke-dasharray="38.05 38.05"/>
<path d="M223.206 665.895C239.014 655.552 249.424 643.492 246.458 638.959C243.492 634.425 228.272 639.135 212.464 649.478C196.656 659.82 186.246 671.88 189.212 676.413C192.178 680.947 207.398 676.238 223.206 665.895Z" stroke="#002B42" stroke-width="12.7425" stroke-miterlimit="10" stroke-linecap="round" stroke-linejoin="round" stroke-dasharray="38.05 38.05"/>
<path d="M217.749 706.796C219.517 706.796 220.95 705.363 220.95 703.595C220.95 701.827 219.517 700.394 217.749 700.394C215.981 700.394 214.547 701.827 214.547 703.595C214.547 705.363 215.981 706.796 217.749 706.796Z" fill="#9A9A99"/>
<path d="M224.22 703.578C225.099 703.578 225.812 702.865 225.812 701.986C225.812 701.106 225.099 700.394 224.22 700.394C223.34 700.394 222.628 701.106 222.628 701.986C222.628 702.865 223.34 703.578 224.22 703.578Z" fill="#BBB9B8"/>
<path d="M211.346 706.779C212.225 706.779 212.938 706.066 212.938 705.187C212.938 704.308 212.225 703.595 211.346 703.595C210.466 703.595 209.754 704.308 209.754 705.187C209.754 706.066 210.466 706.779 211.346 706.779Z" fill="#BBB9B8"/>
<path d="M49 777.227V784.965C49 788.029 50.4723 790.888 52.9546 792.686L105.581 830.469C107.823 832.078 110.648 832.626 113.319 831.993L161.031 820.591C164.387 819.786 166.749 816.756 166.681 813.298L166.561 806.399L110.357 820.094L49 777.227Z" fill="#779633"/>
<path d="M165.397 802.804C167.588 804.105 167.092 807.409 164.609 808.008L151.752 811.107L115.253 819.906C111.932 820.711 108.423 820.06 105.615 818.109L101.78 815.455L94.1105 810.131L92.0219 808.676L88.9403 806.536L51.4482 780.514L50.9175 780.137L50.2327 779.658C48.2126 778.254 48.7947 775.138 51.1914 774.556L93.8194 764.267C96.8496 763.531 100.051 764.01 102.739 765.603L104.639 766.732L105.581 767.28L111.367 770.721L117.273 774.231L147.9 792.395L151.41 794.483L153.088 795.476L162.195 800.869L165.397 802.804Z" fill="#A1C635"/>
<path d="M166.646 810.798L112 823.347C110.973 823.587 110.237 824.494 110.237 825.556C110.237 827.011 111.59 828.089 113.028 827.764L165.448 815.626C166.15 815.455 166.646 814.839 166.646 814.102V810.798Z" fill="white"/>
<path d="M120.475 776.097L63.4661 788.868V800.219L72.4539 806.673L72.7963 795.528L131.157 782.5L120.475 776.097Z" fill="#FEC64A"/>
<path d="M63.4661 788.868L72.7963 795.528L72.4539 806.673L63.4661 800.219V788.868Z" fill="#BC8836"/>
<path d="M199.14 829.202C199.14 831.017 197.89 832.592 196.126 833.003L177.483 837.351C177.158 837.42 176.816 837.454 176.49 837.454V829.373L199.14 824.135V829.202Z" fill="#14598B"/>
<path d="M176.49 829.373V837.454C175.874 837.437 175.275 837.283 174.727 836.974L166.663 832.575C165.414 831.89 164.626 830.572 164.626 829.151V824.648L175.874 829.493L176.49 829.373Z" fill="#1B68A1"/>
<path d="M197.958 825.419L177.466 829.921C176.045 830.229 174.556 830.075 173.22 829.476L165.499 825.984C164.198 825.402 164.37 823.501 165.756 823.159L185.084 818.383C186.522 818.023 188.046 818.16 189.416 818.742L191.299 819.564V820.249L195.442 822.115L196.572 821.841L198.232 822.56C199.585 823.159 199.396 825.111 197.958 825.419Z" fill="#207FC3"/>
<path d="M195.493 822.149L181.883 825.47L177.723 823.364L176.97 822.988L190.306 819.803L191.316 820.249L195.459 822.132L195.493 822.149Z" fill="#D1DEE5"/>
<path d="M191.316 819.564V820.266L177.723 823.364L176.97 822.988L190.306 819.803L191.316 819.564Z" fill="#14598B"/>
<path d="M182.568 824.384C182.828 824.164 182.836 823.746 182.586 823.45C182.335 823.154 181.922 823.092 181.662 823.312C181.402 823.532 181.394 823.95 181.644 824.246C181.895 824.542 182.308 824.603 182.568 824.384Z" fill="#869096"/>
<path d="M193.302 821.156C193.268 821.241 193.199 821.293 193.114 821.327L183.509 823.963C183.475 823.963 183.458 823.981 183.424 823.981C183.287 823.981 183.167 823.895 183.133 823.758C183.081 823.604 183.184 823.433 183.338 823.381L192.6 820.848L193.302 821.156Z" fill="#656F73"/>
<path d="M140.299 840.244V847.982C139.255 847.914 138.211 847.64 137.269 847.161L130.695 843.856C129.839 843.429 129.291 842.538 129.291 841.58V835.981L139.323 840.45L140.299 840.244Z" fill="#9A9A99"/>
<path d="M163.171 841.015C163.171 842.213 162.349 843.24 161.202 843.497L142.628 847.794C141.857 847.965 141.07 848.034 140.299 847.982V840.244L163.171 835.502V841.015Z" fill="#BBB9B8"/>
<path d="M130.301 837.659L137.081 840.878C138.502 841.546 140.094 841.734 141.635 841.409L161.767 837.094C163.445 836.735 163.685 834.458 162.127 833.739L154.166 830.11C152.694 829.442 151.05 829.288 149.475 829.682L130.627 834.321C129.017 834.732 128.795 836.94 130.301 837.659Z" fill="#E1E1E0"/>
<path d="M137.714 832.575L151.102 839.371V845.842L157.659 844.319V837.967L144.408 830.914L137.714 832.575Z" fill="#EE433C"/>
<path d="M151.102 839.371L157.659 837.968V844.319L151.102 845.843V839.371Z" fill="#C4372E"/>
<path d="M266.728 544.776C265.735 544.297 264.622 544.057 263.527 544.057C261.883 544.057 260.257 544.588 259.076 545.598C255.909 548.285 255.035 552.172 256.833 555.561L261.9 563.693C262.346 564.412 263.407 564.361 263.784 563.59L269.279 552.343C269.741 551.453 269.93 550.579 269.93 549.758C269.912 547.498 268.423 545.615 266.728 544.776ZM266.437 550.973C266.095 552.925 264.229 554.517 262.277 554.517C260.325 554.517 259.024 552.925 259.367 550.973C259.709 549.022 261.575 547.429 263.527 547.429C265.478 547.447 266.78 549.022 266.437 550.973Z" fill="#A5331D"/>
<path d="M263.31 568.655C266.076 567.908 268.174 566.77 267.997 566.113C267.819 565.455 265.433 565.528 262.668 566.275C259.902 567.022 257.804 568.16 257.981 568.817C258.159 569.474 260.545 569.402 263.31 568.655Z" fill="#A5331D"/>
<path d="M268.663 545.341C267.67 544.862 266.557 544.622 265.461 544.622C263.818 544.622 262.191 545.153 261.01 546.163C257.843 548.85 256.97 552.737 258.768 556.126L263.835 564.258C264.28 564.977 265.341 564.926 265.718 564.155L271.214 552.908C271.676 552.018 271.864 551.144 271.864 550.323C271.847 548.063 270.358 546.18 268.663 545.341ZM268.389 551.538C268.046 553.49 266.18 555.082 264.229 555.082C262.277 555.082 260.976 553.49 261.318 551.538C261.661 549.587 263.527 547.994 265.478 547.994C267.413 548.012 268.731 549.587 268.389 551.538Z" fill="white"/>
<path d="M265.245 569.221C268.01 568.474 270.109 567.336 269.931 566.679C269.754 566.022 267.368 566.094 264.602 566.841C261.836 567.588 259.738 568.726 259.916 569.384C260.093 570.041 262.479 569.968 265.245 569.221Z" fill="white"/>
<path d="M347.789 603.308L347.772 614.932C347.772 615.052 347.687 615.172 347.567 615.206L332.553 619.161C332.142 619.264 331.731 618.955 331.731 618.527V607.365C331.731 607.16 331.937 607.023 332.125 607.109L339.846 610.961C339.949 611.012 340.086 610.995 340.171 610.892L347.293 603.103C347.481 602.949 347.789 603.068 347.789 603.308Z" fill="#BC8836"/>
<path d="M332.365 605.705L339.555 598.104C339.641 598.018 339.76 597.984 339.88 598.052L347.413 601.853C347.635 601.973 347.618 602.298 347.362 602.366L332.639 606.184C332.382 606.236 332.176 605.91 332.365 605.705Z" fill="#BC8836"/>
<path d="M348.714 604.232L348.697 615.857C348.697 615.977 348.611 616.096 348.491 616.131L333.478 620.085C333.067 620.188 332.656 619.88 332.656 619.452V608.29C332.656 608.084 332.861 607.947 333.05 608.033L340.77 611.885C340.873 611.936 341.01 611.919 341.096 611.816L348.218 604.027C348.406 603.856 348.714 603.976 348.714 604.232Z" fill="white"/>
<path d="M332.861 606.663L340.052 599.062C340.137 598.977 340.257 598.942 340.377 599.011L347.909 602.811C348.132 602.931 348.115 603.256 347.858 603.325L333.135 607.143C332.878 607.211 332.673 606.869 332.861 606.663Z" fill="white"/>
<path d="M84.044 672.283L79.7641 668.791C81.0823 667.181 81.9726 665.298 82.315 663.312C82.8286 660.453 82.1438 657.749 80.4318 655.694C78.7369 653.674 76.2546 652.578 73.4298 652.578C70.6907 652.578 67.9516 653.64 65.6918 655.54C63.4491 657.44 61.9425 659.991 61.4632 662.713C60.9496 665.572 61.6344 668.277 63.3464 670.331C65.0412 672.352 67.5236 673.447 70.3483 673.447C72.591 673.447 74.8337 672.745 76.8024 671.444L81.5446 675.313C81.9041 675.604 82.3492 675.758 82.7943 675.758C83.3593 675.758 83.9242 675.519 84.318 675.039C85.0199 674.218 84.8829 672.985 84.044 672.283ZM65.9828 668.157C64.9214 666.89 64.5276 665.178 64.8529 663.33C65.5719 659.289 69.4067 656.019 73.4298 656.019C75.2274 656.019 76.7682 656.687 77.7954 657.92C78.8568 659.187 79.2505 660.899 78.9253 662.747C78.2062 666.788 74.3714 670.058 70.3483 670.058C68.5679 670.058 67.01 669.373 65.9828 668.157Z" fill="#0B4B77"/>
<path d="M85.4991 673.482L81.2192 669.989C82.5374 668.38 83.4276 666.497 83.77 664.511C84.2836 661.652 83.5988 658.947 81.8869 656.893C80.192 654.873 77.7097 653.777 74.8849 653.777C72.1458 653.777 69.4066 654.838 67.1468 656.739C64.9042 658.639 63.3976 661.19 62.9183 663.912C62.4047 666.771 63.0895 669.476 64.8014 671.53C66.4963 673.55 68.9786 674.646 71.8034 674.646C74.0461 674.646 76.2887 673.944 78.2575 672.643L82.9997 676.512C83.3592 676.803 83.8043 676.957 84.2494 676.957C84.8143 676.957 85.3793 676.717 85.773 676.238C86.4578 675.416 86.338 674.184 85.4991 673.482ZM67.4379 669.356C66.3764 668.089 65.9827 666.377 66.308 664.528C67.027 660.488 70.8618 657.218 74.8849 657.218C76.6825 657.218 78.2233 657.886 79.2504 659.118C80.3119 660.385 80.7056 662.097 80.3803 663.946C79.6613 667.986 75.8265 671.256 71.8034 671.256C70.0229 671.256 68.465 670.571 67.4379 669.356Z" fill="white"/>
<path d="M1211.85 119.463C1222.5 112.83 1225.75 98.8241 1219.11 88.1804C1212.48 77.5367 1198.47 74.2855 1187.83 80.9186C1177.19 87.5518 1173.94 101.557 1180.57 112.201C1187.2 122.845 1201.21 126.096 1211.85 119.463Z" fill="#F5FBFF"/>
<path d="M1177.39 96.7957C1177.9 98.1105 1178.54 99.3979 1179.31 100.638C1185.94 111.282 1199.95 114.533 1210.59 107.9C1216.45 104.247 1220.07 98.3558 1221.03 92.0229C1224.88 101.99 1221.25 113.603 1211.85 119.463C1201.21 126.096 1187.2 122.845 1180.57 112.201C1177.59 107.42 1176.61 101.961 1177.39 96.7957Z" fill="#D9E3E8"/>
<path d="M1260.02 128.072C1279.48 115.945 1285.42 90.3374 1273.3 70.8771C1261.17 51.4167 1235.56 45.4724 1216.1 57.6C1196.64 69.7277 1190.7 95.3348 1202.83 114.795C1214.95 134.256 1240.56 140.2 1260.02 128.072Z" fill="#F5FBFF"/>
<path d="M1196.65 95.948C1197.24 97.1343 1197.89 98.3038 1198.61 99.4514C1210.74 118.912 1236.34 124.856 1255.8 112.728C1269.37 104.277 1276.36 89.2812 1275.25 74.3804C1284.67 93.3112 1278.33 116.66 1260.02 128.072C1240.56 140.2 1214.95 134.256 1202.83 114.795C1199.15 108.896 1197.14 102.431 1196.65 95.948Z" fill="#D9E3E8"/>
<path d="M1294 119.72C1304.65 113.087 1307.9 99.0809 1301.26 88.4372C1294.63 77.7935 1280.62 74.5422 1269.98 81.1754C1259.34 87.8085 1256.09 101.814 1262.72 112.458C1269.35 123.102 1283.36 126.353 1294 119.72Z" fill="#F5FBFF"/>
<path d="M1259.46 97.6663C1259.9 98.6941 1260.43 99.7021 1261.04 100.681C1267.67 111.325 1281.68 114.576 1292.32 107.943C1298.37 104.172 1302.03 98.017 1302.84 91.4522C1307.23 101.596 1303.67 113.697 1294 119.72C1283.36 126.353 1269.35 123.102 1262.72 112.458C1259.86 107.866 1258.84 102.648 1259.46 97.6663Z" fill="#D9E3E8"/>
<path d="M1105.39 170.942C1090.64 180.557 1070.7 176.097 1060.84 160.98C1050.99 145.864 1054.96 125.816 1069.7 116.202C1084.45 106.587 1104.4 111.047 1114.25 126.164C1124.11 141.28 1120.14 161.328 1105.39 170.942Z" fill="#F5FBFF"/>
<path d="M1055.61 146.301C1056.09 147.223 1056.63 148.132 1057.21 149.023C1067.06 164.14 1087.01 168.6 1101.75 158.985C1112.03 152.286 1117.07 140.52 1115.85 128.887C1123.6 143.609 1119.27 161.895 1105.39 170.943C1090.64 180.557 1070.7 176.097 1060.84 160.981C1057.86 156.398 1056.14 151.362 1055.61 146.301Z" fill="#D9E3E8"/>
<path d="M1131.99 159.161C1123.92 164.419 1113.01 161.98 1107.62 153.712C1102.23 145.444 1104.4 134.479 1112.47 129.221C1120.53 123.962 1131.44 126.402 1136.83 134.669C1142.22 142.937 1140.05 153.902 1131.99 159.161Z" fill="#F5FBFF"/>
<path d="M1104.74 142.18C1105.11 142.98 1105.54 143.763 1106.03 144.524C1111.42 152.792 1122.33 155.231 1130.4 149.973C1134.98 146.983 1137.66 142.148 1138.13 137.013C1141.77 144.907 1139.31 154.386 1131.99 159.161C1123.92 164.419 1113.01 161.98 1107.62 153.712C1105.3 150.145 1104.38 146.076 1104.74 142.18Z" fill="#D9E3E8"/>
<path d="M1328.83 242.373C1345.04 251.734 1365.5 246.654 1374.52 231.027C1383.54 215.4 1377.71 195.143 1361.5 185.783C1345.29 176.422 1324.83 181.502 1315.81 197.129C1306.78 212.756 1312.61 233.013 1328.83 242.373Z" fill="#F5FBFF"/>
<path d="M1378.75 215.97C1378.32 216.921 1377.85 217.859 1377.31 218.78C1368.29 234.408 1347.83 239.487 1331.62 230.127C1320.32 223.604 1314.07 211.79 1314.37 199.939C1307.51 215.107 1313.57 233.565 1328.83 242.373C1345.04 251.734 1365.5 246.654 1374.52 231.027C1377.26 226.289 1378.62 221.126 1378.75 215.97Z" fill="#D9E3E8"/>
<path d="M1300.06 231.137C1308.92 236.257 1320.11 233.478 1325.05 224.931C1329.98 216.384 1326.79 205.305 1317.93 200.185C1309.06 195.065 1297.87 197.844 1292.94 206.391C1288 214.938 1291.19 226.017 1300.06 231.137Z" fill="#F5FBFF"/>
<path d="M1327.09 213.137C1326.77 213.959 1326.39 214.767 1325.94 215.554C1321 224.101 1309.81 226.879 1300.94 221.759C1295.9 218.849 1292.7 214.011 1291.78 208.808C1288.64 216.926 1292 226.488 1300.06 231.137C1308.92 236.257 1320.11 233.478 1325.05 224.931C1327.18 221.244 1327.79 217.085 1327.09 213.137Z" fill="#D9E3E8"/>
<path d="M1414.86 261.499C1428.37 269.296 1445.64 264.669 1453.43 251.163C1461.23 237.658 1456.61 220.388 1443.1 212.591C1429.59 204.793 1412.32 209.421 1404.53 222.926C1396.73 236.432 1401.36 253.702 1414.86 261.499Z" fill="#F5FBFF"/>
<path d="M1456.74 231.885C1456.16 233.54 1455.43 235.167 1454.52 236.741C1446.72 250.246 1429.45 254.874 1415.94 247.076C1408.51 242.781 1403.77 235.612 1402.31 227.782C1397.94 240.33 1402.93 254.61 1414.86 261.499C1428.37 269.296 1445.64 264.669 1453.43 251.163C1456.94 245.096 1457.93 238.271 1456.74 231.885Z" fill="#D9E3E8"/>
<path d="M1355.36 274.217C1380.05 288.473 1411.63 280.013 1425.88 255.32C1440.14 230.627 1431.68 199.052 1406.99 184.796C1382.29 170.539 1350.72 179 1336.46 203.693C1322.21 228.385 1330.67 259.96 1355.36 274.217Z" fill="#F5FBFF"/>
<path d="M1432.76 231.639C1432.08 233.138 1431.32 234.618 1430.48 236.074C1416.22 260.767 1384.65 269.228 1359.96 254.971C1342.75 245.037 1333.43 226.693 1334.18 208.128C1323.26 232.05 1332.12 260.801 1355.36 274.217C1380.05 288.473 1411.63 280.013 1425.88 255.32C1430.21 247.834 1432.44 239.715 1432.76 231.639Z" fill="#D9E3E8"/>
<path d="M1312.78 265.261C1326.28 273.058 1343.55 268.431 1351.35 254.925C1359.15 241.42 1354.52 224.15 1341.02 216.352C1327.51 208.555 1310.24 213.182 1302.44 226.688C1294.65 240.194 1299.27 257.463 1312.78 265.261Z" fill="#F5FBFF"/>
<path d="M1354.79 236.406C1354.28 237.702 1353.67 238.977 1352.95 240.219C1345.15 253.725 1327.88 258.352 1314.38 250.555C1306.7 246.121 1301.89 238.625 1300.61 230.501C1295.57 243.291 1300.52 258.181 1312.78 265.261C1326.29 273.058 1343.55 268.431 1351.35 254.925C1354.72 249.098 1355.76 242.571 1354.79 236.406Z" fill="#D9E3E8"/>
<path d="M669.828 285.127C686.041 294.488 706.498 289.408 715.521 273.781C724.543 258.154 718.714 237.897 702.5 228.537C686.287 219.176 665.83 224.256 656.807 239.883C647.785 255.51 653.614 275.766 669.828 285.127Z" fill="#F5FBFF"/>
<path d="M719.754 258.724C719.324 259.675 718.845 260.613 718.313 261.534C709.291 277.161 688.834 282.241 672.62 272.881C661.322 266.358 655.069 254.544 655.367 242.693C648.51 257.861 654.57 276.318 669.828 285.127C686.041 294.488 706.498 289.408 715.521 273.781C718.256 269.043 719.624 263.88 719.754 258.724Z" fill="#D9E3E8"/>
<path d="M641.057 273.891C649.924 279.011 661.113 276.232 666.048 267.685C670.983 259.138 667.794 248.059 658.927 242.939C650.059 237.819 638.87 240.598 633.935 249.145C629 257.692 632.189 268.771 641.057 273.891Z" fill="#F5FBFF"/>
<path d="M668.092 255.891C667.773 256.713 667.389 257.521 666.935 258.308C662.001 266.855 650.812 269.633 641.944 264.513C636.902 261.602 633.7 256.765 632.779 251.562C629.636 259.68 633.005 269.242 641.056 273.891C649.924 279.011 661.113 276.232 666.048 267.685C668.177 263.998 668.791 259.839 668.092 255.891Z" fill="#D9E3E8"/>
<path d="M751.09 285.194C761.772 291.361 775.433 287.701 781.6 277.018C787.768 266.336 784.108 252.675 773.425 246.508C762.742 240.34 749.082 244 742.914 254.683C736.747 265.366 740.407 279.026 751.09 285.194Z" fill="#F5FBFF"/>
<path d="M784.211 261.769C783.755 263.078 783.175 264.365 782.456 265.61C776.288 276.293 762.628 279.953 751.945 273.785C746.062 270.388 742.314 264.717 741.16 258.524C737.701 268.449 741.652 279.744 751.09 285.193C761.773 291.361 775.433 287.701 781.6 277.018C784.371 272.219 785.153 266.821 784.211 261.769Z" fill="#D9E3E8"/>
<path d="M704.024 295.253C723.556 306.53 748.531 299.838 759.808 280.306C771.085 260.774 764.392 235.799 744.86 224.522C725.329 213.245 700.353 219.937 689.077 239.469C677.8 259.001 684.492 283.977 704.024 295.253Z" fill="#F5FBFF"/>
<path d="M765.249 261.574C764.708 262.76 764.108 263.931 763.443 265.083C752.166 284.615 727.191 291.307 707.659 280.03C694.049 272.172 686.676 257.662 687.27 242.978C678.636 261.9 685.644 284.641 704.024 295.253C723.556 306.53 748.531 299.838 759.808 280.306C763.227 274.385 764.991 267.963 765.249 261.574Z" fill="#D9E3E8"/>
<path d="M670.343 288.169C681.026 294.337 694.686 290.677 700.854 279.994C707.021 269.311 703.361 255.651 692.678 249.483C681.996 243.315 668.336 246.976 662.168 257.658C656 268.341 659.66 282.001 670.343 288.169Z" fill="#F5FBFF"/>
<path d="M703.57 265.345C703.167 266.37 702.684 267.379 702.117 268.361C695.949 279.044 682.289 282.704 671.606 276.537C665.532 273.03 661.733 267.101 660.715 260.675C656.735 270.792 660.643 282.569 670.343 288.169C681.026 294.337 694.686 290.677 700.854 279.994C703.515 275.385 704.343 270.222 703.57 265.345Z" fill="#D9E3E8"/>
<path d="M864.438 221.46C876.884 213.498 880.518 196.954 872.556 184.509C864.594 172.064 848.051 168.429 835.605 176.391C823.16 184.353 819.526 200.897 827.488 213.342C835.45 225.787 851.993 229.422 864.438 221.46Z" fill="#F5FBFF"/>
<path d="M823.533 195.239C824.15 196.781 824.914 198.289 825.842 199.739C833.804 212.184 850.347 215.819 862.792 207.857C869.647 203.471 873.822 196.482 874.865 189.009C879.545 200.695 875.433 214.426 864.438 221.46C851.993 229.422 835.45 225.787 827.488 213.342C823.911 207.751 822.681 201.335 823.533 195.239Z" fill="#D9E3E8"/>
<path d="M921.299 230.929C944.054 216.372 950.699 186.125 936.141 163.371C921.584 140.617 891.337 133.972 868.583 148.529C845.829 163.086 839.184 193.333 853.741 216.087C868.298 238.842 898.545 245.487 921.299 230.929Z" fill="#F5FBFF"/>
<path d="M846.208 193.972C846.92 195.362 847.702 196.73 848.561 198.072C863.118 220.826 893.365 227.471 916.119 212.914C931.975 202.77 940.006 185.007 938.494 167.47C949.856 189.639 942.712 217.231 921.299 230.929C898.545 245.487 868.298 238.842 853.741 216.087C849.327 209.189 846.866 201.602 846.208 193.972Z" fill="#D9E3E8"/>
<path d="M961.211 220.617C973.656 212.655 977.29 196.111 969.328 183.666C961.366 171.221 944.823 167.586 932.378 175.548C919.932 183.51 916.298 200.054 924.26 212.499C932.222 224.944 948.765 228.579 961.211 220.617Z" fill="#F5FBFF"/>
<path d="M920.212 195.12C920.75 196.325 921.382 197.505 922.115 198.65C930.077 211.095 946.62 214.73 959.066 206.768C966.141 202.241 970.364 194.94 971.232 187.195C976.545 199.083 972.511 213.387 961.211 220.616C948.765 228.579 932.222 224.944 924.26 212.499C920.825 207.129 919.553 200.997 920.212 195.12Z" fill="#D9E3E8"/>
<path d="M976.537 228.498C990.043 236.296 1007.31 231.668 1015.11 218.163C1022.91 204.657 1018.28 187.387 1004.77 179.59C991.269 171.792 973.999 176.42 966.201 189.925C958.404 203.431 963.031 220.701 976.537 228.498Z" fill="#F5FBFF"/>
<path d="M1018.41 198.884C1017.83 200.539 1017.1 202.166 1016.19 203.74C1008.39 217.245 991.124 221.873 977.619 214.075C970.18 209.781 965.442 202.611 963.983 194.781C959.61 207.329 964.605 221.609 976.537 228.498C990.043 236.295 1007.31 231.668 1015.11 218.162C1018.61 212.095 1019.6 205.27 1018.41 198.884Z" fill="#D9E3E8"/>
<path d="M917.035 241.216C941.728 255.472 973.303 247.012 987.559 222.319C1001.82 197.626 993.355 166.051 968.662 151.795C943.969 137.538 912.394 145.999 898.138 170.692C883.881 195.385 892.342 226.959 917.035 241.216Z" fill="#F5FBFF"/>
<path d="M994.439 198.638C993.755 200.137 992.996 201.617 992.155 203.073C977.899 227.766 946.324 236.227 921.631 221.97C904.424 212.036 895.103 193.692 895.854 175.127C884.939 199.049 893.798 227.8 917.035 241.216C941.728 255.472 973.303 247.012 987.559 222.319C991.881 214.833 994.112 206.714 994.439 198.638Z" fill="#D9E3E8"/>
<path d="M874.454 232.26C887.96 240.057 905.229 235.43 913.027 221.924C920.824 208.419 916.197 191.149 902.691 183.352C889.186 175.554 871.916 180.181 864.118 193.687C856.321 207.193 860.948 224.462 874.454 232.26Z" fill="#F5FBFF"/>
<path d="M916.461 203.405C915.951 204.701 915.341 205.976 914.623 207.218C906.826 220.724 889.556 225.351 876.051 217.554C868.372 213.12 863.568 205.624 862.281 197.5C857.25 210.29 862.191 225.18 874.454 232.26C887.96 240.057 905.229 235.43 913.027 221.924C916.391 216.097 917.438 209.57 916.461 203.405Z" fill="#D9E3E8"/>
<path d="M793.404 167.002C804.339 160.862 808.227 147.02 802.087 136.084C795.947 125.148 782.105 121.261 771.169 127.4C760.233 133.54 756.346 147.383 762.486 158.318C768.625 169.254 782.468 173.142 793.404 167.002Z" fill="#F5FBFF"/>
<path d="M760.017 142.784C760.465 144.121 761.039 145.436 761.755 146.71C767.894 157.646 781.737 161.534 792.673 155.394C798.696 152.012 802.575 146.292 803.824 140.01C807.219 150.143 803.065 161.578 793.403 167.002C782.468 173.142 768.625 169.254 762.485 158.318C759.727 153.406 758.999 147.908 760.017 142.784Z" fill="#D9E3E8"/>
<path d="M841.129 177.803C861.123 166.578 868.231 141.269 857.005 121.275C845.779 101.28 820.471 94.1723 800.476 105.398C780.482 116.624 773.374 141.933 784.6 161.927C795.826 181.921 821.134 189.029 841.129 177.803Z" fill="#F5FBFF"/>
<path d="M779.296 142.817C779.832 144.029 780.428 145.227 781.09 146.406C792.316 166.4 817.624 173.509 837.619 162.283C851.551 154.46 859.224 139.799 858.799 124.864C867.346 144.205 859.944 167.239 841.129 177.803C821.134 189.029 795.826 181.921 784.6 161.927C781.197 155.865 779.481 149.315 779.296 142.817Z" fill="#D9E3E8"/>
<path d="M875.456 171.012C886.392 164.873 890.279 151.03 884.139 140.094C878 129.159 864.157 125.271 853.222 131.411C842.286 137.551 838.398 151.393 844.538 162.329C850.678 173.265 864.52 177.152 875.456 171.012Z" fill="#F5FBFF"/>
<path d="M841.955 147.404C842.353 148.451 842.831 149.482 843.396 150.488C849.536 161.423 863.378 165.311 874.314 159.171C880.532 155.681 884.467 149.699 885.58 143.179C889.503 153.512 885.385 165.437 875.456 171.012C864.52 177.152 850.678 173.265 844.538 162.329C841.889 157.611 841.11 152.352 841.955 147.404Z" fill="#D9E3E8"/>
<path d="M793.404 167.002C804.339 160.862 808.227 147.02 802.087 136.084C795.947 125.148 782.105 121.261 771.169 127.4C760.233 133.54 756.346 147.383 762.486 158.318C768.625 169.254 782.468 173.142 793.404 167.002Z" fill="#F5FBFF"/>
<path d="M760.017 142.784C760.465 144.121 761.039 145.436 761.755 146.71C767.894 157.646 781.737 161.534 792.673 155.394C798.696 152.012 802.575 146.292 803.824 140.01C807.219 150.143 803.065 161.578 793.403 167.002C782.468 173.142 768.625 169.254 762.485 158.318C759.727 153.406 758.999 147.908 760.017 142.784Z" fill="#D9E3E8"/>
<path d="M841.129 177.803C861.123 166.578 868.231 141.269 857.005 121.275C845.779 101.28 820.471 94.1723 800.476 105.398C780.482 116.624 773.374 141.933 784.6 161.927C795.826 181.921 821.134 189.029 841.129 177.803Z" fill="#F5FBFF"/>
<path d="M779.296 142.817C779.832 144.029 780.428 145.227 781.09 146.406C792.316 166.4 817.624 173.509 837.619 162.283C851.551 154.46 859.224 139.799 858.799 124.864C867.346 144.205 859.944 167.239 841.129 177.803C821.134 189.029 795.826 181.921 784.6 161.927C781.197 155.865 779.481 149.315 779.296 142.817Z" fill="#D9E3E8"/>
<path d="M875.456 171.012C886.392 164.873 890.279 151.03 884.139 140.094C878 129.159 864.157 125.271 853.222 131.411C842.286 137.551 838.398 151.393 844.538 162.329C850.678 173.265 864.52 177.152 875.456 171.012Z" fill="#F5FBFF"/>
<path d="M841.955 147.404C842.353 148.451 842.831 149.482 843.396 150.488C849.536 161.423 863.378 165.311 874.314 159.171C880.532 155.681 884.467 149.699 885.58 143.179C889.503 153.512 885.385 165.437 875.456 171.012C864.52 177.152 850.678 173.265 844.538 162.329C841.889 157.611 841.11 152.352 841.955 147.404Z" fill="#D9E3E8"/>
<path d="M851.66 166.311C860.056 171.158 870.791 168.282 875.638 159.886C880.485 151.491 877.609 140.755 869.213 135.908C860.818 131.061 850.082 133.937 845.235 142.333C840.388 150.729 843.264 161.464 851.66 166.311Z" fill="#F5FBFF"/>
<path d="M877.69 147.902C877.331 148.931 876.876 149.942 876.311 150.92C871.464 159.316 860.728 162.193 852.332 157.345C847.708 154.676 844.763 150.219 843.856 145.351C841.138 153.152 844.243 162.029 851.66 166.311C860.056 171.158 870.791 168.282 875.638 159.886C877.816 156.115 878.43 151.872 877.69 147.902Z" fill="#D9E3E8"/>
<path d="M814.671 174.217C830.021 183.079 849.649 177.82 858.512 162.47C867.374 147.12 862.115 127.492 846.765 118.629C831.415 109.767 811.787 115.026 802.924 130.376C794.062 145.727 799.321 165.355 814.671 174.217Z" fill="#F5FBFF"/>
<path d="M862.788 147.749C862.363 148.68 861.891 149.601 861.369 150.506C852.507 165.856 832.879 171.115 817.528 162.253C806.832 156.078 801.038 144.674 801.505 133.134C794.719 148.004 800.226 165.877 814.671 174.217C830.021 183.079 849.649 177.82 858.512 162.47C861.199 157.816 862.585 152.769 862.788 147.749Z" fill="#D9E3E8"/>
<path d="M788.202 168.649C796.597 173.497 807.333 170.62 812.18 162.225C817.027 153.829 814.15 143.094 805.755 138.246C797.359 133.399 786.624 136.276 781.777 144.671C776.929 153.067 779.806 163.802 788.202 168.649Z" fill="#F5FBFF"/>
<path d="M814.315 150.712C813.998 151.518 813.618 152.31 813.172 153.083C808.325 161.478 797.59 164.355 789.194 159.508C784.421 156.752 781.435 152.092 780.634 147.042C777.507 154.993 780.578 164.248 788.202 168.649C796.597 173.497 807.333 170.62 812.18 162.224C814.271 158.602 814.922 154.545 814.315 150.712Z" fill="#D9E3E8"/>
<path d="M575.537 188.498C589.043 196.296 606.312 191.668 614.11 178.163C621.907 164.657 617.28 147.387 603.774 139.59C590.269 131.792 572.999 136.42 565.201 149.925C557.404 163.431 562.031 180.701 575.537 188.498Z" fill="#F5FBFF"/>
<path d="M617.41 158.884C616.833 160.539 616.1 162.166 615.192 163.74C607.394 177.245 590.124 181.873 576.619 174.075C569.18 169.781 564.442 162.611 562.983 154.781C558.61 167.329 563.605 181.609 575.537 188.498C589.043 196.295 606.312 191.668 614.11 178.162C617.612 172.095 618.6 165.27 617.41 158.884Z" fill="#D9E3E8"/>
<path d="M516.035 201.216C540.728 215.472 572.303 207.012 586.559 182.319C600.816 157.626 592.355 126.051 567.662 111.795C542.969 97.5381 511.394 105.999 497.138 130.692C482.881 155.385 491.342 186.959 516.035 201.216Z" fill="#F5FBFF"/>
<path d="M593.439 158.638C592.755 160.137 591.996 161.617 591.155 163.073C576.899 187.766 545.324 196.227 520.631 181.97C503.424 172.036 494.103 153.692 494.854 135.127C483.939 159.049 492.798 187.8 516.035 201.216C540.728 215.472 572.303 207.012 586.559 182.319C590.881 174.833 593.112 166.714 593.439 158.638Z" fill="#D9E3E8"/>
<path d="M473.454 192.26C486.96 200.057 504.229 195.43 512.027 181.924C519.824 168.419 515.197 151.149 501.691 143.352C488.186 135.554 470.916 140.181 463.118 153.687C455.321 167.193 459.948 184.462 473.454 192.26Z" fill="#F5FBFF"/>
<path d="M515.461 163.405C514.951 164.701 514.341 165.976 513.623 167.218C505.826 180.724 488.556 185.351 475.051 177.554C467.372 173.12 462.568 165.624 461.281 157.5C456.25 170.29 461.191 185.18 473.454 192.26C486.96 200.057 504.229 195.43 512.027 181.924C515.391 176.097 516.438 169.57 515.461 163.405Z" fill="#D9E3E8"/>
<path d="M1556.92 113.613C1567.35 107.114 1570.54 93.3919 1564.04 82.9634C1557.54 72.5349 1543.82 69.3495 1533.39 75.8485C1522.96 82.3475 1519.78 96.0699 1526.27 106.498C1532.77 116.927 1546.5 120.112 1556.92 113.613Z" fill="#F5FBFF"/>
<path d="M1523.16 91.4046C1523.66 92.6928 1524.28 93.9541 1525.04 95.1695C1531.54 105.598 1545.26 108.783 1555.69 102.284C1561.43 98.7049 1564.97 92.9331 1565.91 86.7283C1569.69 96.4935 1566.14 107.872 1556.92 113.613C1546.5 120.112 1532.77 116.927 1526.27 106.498C1523.35 101.814 1522.4 96.4653 1523.16 91.4046Z" fill="#D9E3E8"/>
<path d="M1604.12 122.048C1623.19 110.166 1629.01 85.0768 1617.13 66.0099C1605.24 46.943 1580.16 41.1189 1561.09 53.0013C1542.02 64.8838 1536.2 89.9731 1548.08 109.04C1559.96 128.107 1585.05 133.931 1604.12 122.048Z" fill="#F5FBFF"/>
<path d="M1542.03 90.5738C1542.61 91.7361 1543.25 92.882 1543.95 94.0063C1555.83 113.073 1580.92 118.897 1599.99 107.015C1613.28 98.7348 1620.13 84.0418 1619.04 69.4423C1628.28 87.9903 1622.06 110.867 1604.12 122.049C1585.05 133.931 1559.96 128.107 1548.08 109.04C1544.48 103.259 1542.51 96.9255 1542.03 90.5738Z" fill="#D9E3E8"/>
<path d="M1637.41 113.865C1647.84 107.366 1651.03 93.6436 1644.53 83.2151C1638.03 72.7866 1624.31 69.6011 1613.88 76.1001C1603.45 82.5991 1600.26 96.3216 1606.76 106.75C1613.26 117.179 1626.98 120.364 1637.41 113.865Z" fill="#F5FBFF"/>
<path d="M1603.57 92.2577C1604 93.2647 1604.52 94.2523 1605.12 95.2118C1611.61 105.64 1625.34 108.826 1635.77 102.327C1641.69 98.6317 1645.28 92.6013 1646.08 86.1693C1650.38 96.1079 1646.88 107.964 1637.41 113.865C1626.98 120.364 1613.26 117.179 1606.76 106.75C1603.96 102.251 1602.96 97.1387 1603.57 92.2577Z" fill="#D9E3E8"/>
<path d="M1698.4 201.003C1709.34 194.863 1713.23 181.02 1707.09 170.085C1700.95 159.149 1687.1 155.261 1676.17 161.401C1665.23 167.541 1661.35 181.383 1667.49 192.319C1673.63 203.255 1687.47 207.143 1698.4 201.003Z" fill="#F5FBFF"/>
<path d="M1665.02 176.785C1665.47 178.122 1666.04 179.436 1666.75 180.711C1672.89 191.647 1686.74 195.534 1697.67 189.395C1703.7 186.013 1707.58 180.293 1708.82 174.011C1712.22 184.143 1708.06 195.578 1698.4 201.003C1687.47 207.143 1673.63 203.255 1667.49 192.319C1664.73 187.407 1664 181.909 1665.02 176.785Z" fill="#D9E3E8"/>
<path d="M1746.13 211.804C1766.12 200.578 1773.23 175.27 1762.01 155.275C1750.78 135.281 1725.47 128.173 1705.48 139.399C1685.48 150.625 1678.37 175.933 1689.6 195.928C1700.83 215.922 1726.13 223.03 1746.13 211.804Z" fill="#F5FBFF"/>
<path d="M1684.3 176.818C1684.83 178.03 1685.43 179.228 1686.09 180.407C1697.32 200.401 1722.62 207.509 1742.62 196.284C1756.55 188.461 1764.22 173.8 1763.8 158.864C1772.35 178.206 1764.94 201.24 1746.13 211.804C1726.13 223.03 1700.83 215.922 1689.6 195.927C1686.2 189.866 1684.48 183.316 1684.3 176.818Z" fill="#D9E3E8"/>
<path d="M1780.46 205.013C1791.39 198.873 1795.28 185.031 1789.14 174.095C1783 163.159 1769.16 159.272 1758.22 165.412C1747.29 171.551 1743.4 185.394 1749.54 196.33C1755.68 207.265 1769.52 211.153 1780.46 205.013Z" fill="#F5FBFF"/>
<path d="M1746.96 181.404C1747.35 182.451 1747.83 183.482 1748.4 184.489C1754.54 195.424 1768.38 199.312 1779.31 193.172C1785.53 189.681 1789.47 183.7 1790.58 177.179C1794.5 187.513 1790.39 199.438 1780.46 205.013C1769.52 211.153 1755.68 207.265 1749.54 196.33C1746.89 191.611 1746.11 186.353 1746.96 181.404Z" fill="#D9E3E8"/>
<path d="M1698.4 201.003C1709.34 194.863 1713.23 181.02 1707.09 170.085C1700.95 159.149 1687.1 155.261 1676.17 161.401C1665.23 167.541 1661.35 181.383 1667.49 192.319C1673.63 203.255 1687.47 207.143 1698.4 201.003Z" fill="#F5FBFF"/>
<path d="M1665.02 176.785C1665.47 178.122 1666.04 179.436 1666.75 180.711C1672.89 191.647 1686.74 195.534 1697.67 189.395C1703.7 186.013 1707.58 180.293 1708.82 174.011C1712.22 184.143 1708.06 195.578 1698.4 201.003C1687.47 207.143 1673.63 203.255 1667.49 192.319C1664.73 187.407 1664 181.909 1665.02 176.785Z" fill="#D9E3E8"/>
<path d="M1746.13 211.804C1766.12 200.578 1773.23 175.27 1762.01 155.275C1750.78 135.281 1725.47 128.173 1705.48 139.399C1685.48 150.625 1678.37 175.933 1689.6 195.928C1700.83 215.922 1726.13 223.03 1746.13 211.804Z" fill="#F5FBFF"/>
<path d="M1684.3 176.818C1684.83 178.03 1685.43 179.228 1686.09 180.407C1697.32 200.401 1722.62 207.509 1742.62 196.284C1756.55 188.461 1764.22 173.8 1763.8 158.864C1772.35 178.206 1764.94 201.24 1746.13 211.804C1726.13 223.03 1700.83 215.922 1689.6 195.927C1686.2 189.866 1684.48 183.316 1684.3 176.818Z" fill="#D9E3E8"/>
<path d="M1780.46 205.013C1791.39 198.873 1795.28 185.031 1789.14 174.095C1783 163.159 1769.16 159.272 1758.22 165.412C1747.29 171.551 1743.4 185.394 1749.54 196.33C1755.68 207.265 1769.52 211.153 1780.46 205.013Z" fill="#F5FBFF"/>
<path d="M1746.96 181.404C1747.35 182.451 1747.83 183.482 1748.4 184.489C1754.54 195.424 1768.38 199.312 1779.31 193.172C1785.53 189.681 1789.47 183.7 1790.58 177.179C1794.5 187.513 1790.39 199.438 1780.46 205.013C1769.52 211.153 1755.68 207.265 1749.54 196.33C1746.89 191.611 1746.11 186.353 1746.96 181.404Z" fill="#D9E3E8"/>
<path d="M1475.45 107.494C1485.74 113.436 1498.73 110.211 1504.46 100.293C1510.18 90.3736 1506.48 77.5162 1496.19 71.5747C1485.9 65.6332 1472.92 68.8575 1467.19 78.7764C1461.46 88.6953 1465.16 101.553 1475.45 107.494Z" fill="#F5FBFF"/>
<path d="M1507.14 90.7356C1506.87 91.3388 1506.57 91.9343 1506.23 92.5192C1500.5 102.438 1487.52 105.662 1477.23 99.7209C1470.05 95.5807 1466.09 88.0822 1466.27 80.56C1461.92 90.1879 1465.77 101.903 1475.45 107.494C1485.74 113.436 1498.73 110.211 1504.46 100.292C1506.19 97.2853 1507.06 94.0082 1507.14 90.7356Z" fill="#D9E3E8"/>
<path d="M1457.19 100.362C1462.82 103.612 1469.92 101.848 1473.05 96.4233C1476.19 90.9982 1474.16 83.966 1468.53 80.7163C1462.91 77.4666 1455.8 79.2302 1452.67 84.6552C1449.54 90.0803 1451.56 97.1126 1457.19 100.362Z" fill="#F5FBFF"/>
<path d="M1474.35 88.937C1474.15 89.4591 1473.91 89.972 1473.62 90.4711C1470.49 95.8961 1463.38 97.6596 1457.75 94.41C1454.55 92.5624 1452.52 89.4918 1451.94 86.1893C1449.94 91.3424 1452.08 97.4115 1457.19 100.362C1462.82 103.612 1469.92 101.848 1473.05 96.4233C1474.41 94.0826 1474.8 91.4431 1474.35 88.937Z" fill="#D9E3E8"/>
<path d="M1831.12 197.398C1822.07 201.618 1811.43 197.965 1807.37 189.239C1803.3 180.513 1807.34 170.017 1816.39 165.797C1825.45 161.577 1836.08 165.23 1840.15 173.956C1844.22 182.682 1840.18 193.178 1831.12 197.398Z" fill="#F5FBFF"/>
<path d="M1805.82 181.039C1806 181.564 1806.21 182.085 1806.45 182.599C1810.52 191.326 1821.16 194.979 1830.21 190.758C1836.52 187.818 1840.39 181.83 1840.79 175.517C1843.72 183.898 1839.64 193.426 1831.12 197.398C1822.07 201.618 1811.43 197.965 1807.37 189.239C1806.13 186.593 1805.65 183.785 1805.82 181.039Z" fill="#D9E3E8"/>
<path d="M1846.94 192.766C1841.99 195.074 1836.17 193.076 1833.94 188.303C1831.72 183.53 1833.93 177.79 1838.88 175.482C1843.83 173.174 1849.65 175.172 1851.88 179.944C1854.1 184.717 1851.89 190.457 1846.94 192.766Z" fill="#F5FBFF"/>
<path d="M1833.41 181.939C1833.54 182.391 1833.7 182.838 1833.91 183.277C1836.13 188.05 1841.95 190.048 1846.9 187.74C1849.72 186.427 1851.65 184.005 1852.38 181.283C1853.67 185.744 1851.44 190.669 1846.94 192.765C1841.99 195.074 1836.17 193.076 1833.94 188.303C1832.98 186.244 1832.85 184.005 1833.41 181.939Z" fill="#D9E3E8"/>
</svg>
